<?xml version="1.0" encoding="UTF-8"?>
<svg xmlns="http://www.w3.org/2000/svg" xmlns:xlink="http://www.w3.org/1999/xlink" version="1.2" >
<font id="SansBlockRegular" horiz-adv-x="406">
<font-face  font-family="Sans Block" units-per-em="1000" ascent="970" descent="-300" font-style="normal" font-weight="400" font-stretch="normal" cap-height="724" x-height="500" underline-position="0" underline-thickness="0" />
<missing-glyph horiz-adv-x="527" />
<glyph glyph-name="null" horiz-adv-x="0" />
<glyph glyph-name="&amp;#x0;" horiz-adv-x="0" />
<glyph glyph-name="&amp;#xd;" unicode="&#xd;" horiz-adv-x="0" />
<glyph glyph-name="space" unicode="&#x20;" horiz-adv-x="250" />
<glyph glyph-name="controlLF" unicode="&#xa;" horiz-adv-x="0" />
<glyph glyph-name="exclam" unicode="&#x21;" horiz-adv-x="176" d="M113 162 C115 171 115 211 115 220 C120 367 112 514 115 661 C115 667 117 694 116 700 C113 730 71 736 59 708 C57 703 57 699 56 694 C54 678 54 595 54 579 C55 459 58 338 55 217 C55 207 52 167 57 158 C68 132 105 135 113 162 L113 162 Z M113 -12 C138 6 124 45 93 43 C62 40 51 1 78 -15 C89 -21 104 -19 113 -12 L113 -12 Z " />
<glyph glyph-name="quotedbl" unicode="&#x22;" horiz-adv-x="204" d="M178 613 C176 624 177 692 176 703 C173 737 125 740 117 708 C115 699 117 661 117 652 C117 644 117 609 119 601 C130 565 183 575 178 613 L178 613 Z M76 582 C83 588 87 598 86 608 C85 621 89 690 85 703 C79 728 46 734 32 713 C26 705 25 694 27 684 C28 673 26 617 26 607 C26 580 56 566 76 582 L76 582 Z " />
<glyph glyph-name="numbersign" unicode="&#x23;" horiz-adv-x="486" d="M303 117 C307 129 315 191 317 203 C317 205 316 208 318 208 C343 209 367 209 392 209 C433 208 436 268 395 269 C373 269 352 269 330 268 C342 314 354 360 366 405 C374 406 408 408 416 406 C423 403 432 405 439 409 C466 424 456 463 426 466 C420 466 388 466 382 466 C385 476 395 517 394 527 C390 555 354 563 339 539 C336 534 334 529 333 523 C330 503 325 484 320 465 C285 465 249 465 214 464 C217 477 218 491 225 503 C242 536 196 565 174 535 C173 533 168 525 167 523 C164 515 154 472 152 463 C132 463 112 462 92 464 C59 469 42 428 70 410 C77 405 87 403 96 403 C110 402 123 403 137 403 C126 356 117 308 107 260 C103 260 79 257 75 257 C69 257 63 258 58 257 C25 251 25 204 58 198 C70 196 83 198 95 199 C93 192 84 153 83 146 C78 110 130 98 141 132 C144 142 155 194 157 204 C190 205 223 206 257 207 C255 196 250 149 246 139 C235 118 252 94 276 95 C288 96 299 105 303 117 L303 117 Z M199 404 C234 405 269 405 304 405 C299 388 273 284 268 267 C235 266 202 266 169 264 C178 311 188 358 199 404 L199 404 Z " />
<glyph glyph-name="dollar" unicode="&#x24;" horiz-adv-x="450" d="M258 -40 C256 -29 253 30 252 41 C295 46 344 61 372 94 C394 119 403 154 405 187 C407 218 396 250 380 276 C363 303 341 326 318 347 C285 378 246 400 213 431 C188 455 167 486 153 518 C149 527 146 537 146 547 C146 586 194 628 231 639 C260 647 310 625 329 602 C338 590 344 574 341 560 C341 557 335 543 334 540 C322 505 373 484 389 517 C408 555 405 600 381 633 C357 666 316 688 276 698 C276 709 277 721 279 732 C287 774 224 783 219 740 C218 726 216 711 216 697 C161 682 107 633 91 578 C85 560 84 540 88 522 C94 499 105 477 117 456 C137 424 162 395 191 371 C228 340 269 315 301 280 C315 264 330 247 338 228 C351 197 345 146 319 125 C310 118 298 113 286 109 C239 93 181 98 137 122 C123 130 108 138 100 152 C95 160 95 172 98 181 C99 184 101 192 104 193 C130 203 131 239 105 249 C94 254 80 249 70 243 C40 223 28 170 41 136 C51 112 72 92 94 78 C123 60 157 48 191 43 C194 18 196 -8 197 -33 C197 -42 197 -52 201 -60 C216 -94 267 -77 258 -40 L258 -40 Z " />
<glyph glyph-name="percent" unicode="&#x25;" horiz-adv-x="559" d="M116 -7 C121 -4 124 0 127 5 C149 38 166 75 184 111 C284 302 387 491 493 679 C495 683 499 688 500 693 C507 720 477 742 454 726 C451 723 448 721 446 717 C336 526 232 332 130 137 C123 122 85 49 76 36 C55 9 88 -26 116 -7 L116 -7 Z M166 441 C225 460 256 551 251 613 C249 634 241 655 229 672 C213 694 187 712 160 717 C148 718 134 717 126 708 C125 707 124 704 122 704 C113 705 105 702 97 699 C45 679 28 600 37 545 C42 515 56 485 78 465 C92 452 109 442 127 438 C139 436 153 437 166 441 L166 441 Z M131 500 C114 509 102 529 98 548 C92 577 94 611 110 636 C114 642 123 644 130 647 C135 649 140 653 143 657 C145 659 149 658 152 657 C167 655 186 633 190 618 C197 589 188 556 175 529 C166 511 150 490 131 500 L131 500 Z M437 8 C496 28 527 118 522 180 C520 201 512 222 500 239 C484 261 458 280 431 284 C420 286 405 284 397 275 C396 274 395 271 393 272 C384 272 376 269 368 266 C316 246 300 167 308 112 C313 82 327 52 349 32 C363 19 380 9 398 6 C411 3 425 4 437 8 L437 8 Z M403 67 C385 76 373 96 369 115 C363 144 365 178 381 203 C385 209 394 211 401 214 C406 216 411 220 415 224 C416 226 421 225 423 224 C438 222 457 200 461 185 C468 156 460 123 446 96 C437 78 421 57 403 67 L403 67 Z " />
<glyph glyph-name="ampersand" unicode="&#x26;" horiz-adv-x="522" d="M492 -27 C507 -9 501 22 480 31 C479 32 480 29 479 29 C476 30 469 30 467 31 C461 37 428 70 422 75 C446 100 455 135 472 165 C486 189 462 218 435 208 C428 205 422 199 418 193 C403 168 399 137 379 117 C313 180 252 252 212 334 C252 372 294 408 328 450 C353 479 373 514 383 550 C394 592 392 643 367 677 C338 715 268 716 225 695 C198 682 177 658 160 633 C137 599 120 559 116 519 C109 462 120 402 141 349 C107 316 73 279 53 236 C41 209 32 179 36 149 C38 127 47 105 59 86 C100 21 186 -17 263 -3 C302 4 340 18 374 39 C396 17 418 -5 441 -26 C456 -40 479 -43 492 -27 L492 -27 Z M181 540 C189 565 201 590 218 611 C229 624 241 637 256 644 C270 650 286 651 301 648 C308 647 316 645 320 639 C325 632 326 624 328 616 C334 581 320 543 301 513 C271 468 229 431 189 394 C174 440 166 493 181 540 L181 540 Z M216 54 C166 60 102 103 96 153 C93 172 99 192 107 210 C121 240 144 266 167 291 C209 213 266 144 328 82 C294 65 254 50 216 54 L216 54 Z " />
<glyph glyph-name="quotesingle" unicode="&#x27;" horiz-adv-x="111" d="M83 607 C87 615 86 624 85 633 C85 642 85 690 86 699 C89 741 29 745 26 703 C25 691 25 631 26 619 C30 588 69 579 83 607 L83 607 Z " />
<glyph glyph-name="parenleft" unicode="&#x28;" horiz-adv-x="326" d="M301 18 C300 26 296 35 290 40 C242 74 199 117 166 165 C128 219 105 286 101 352 C99 396 107 441 124 482 C154 555 216 617 285 656 C320 677 293 728 257 709 C251 707 224 689 219 685 C146 635 85 559 58 476 C44 431 39 382 42 335 C46 278 64 221 92 171 C130 101 188 40 252 -7 C273 -23 304 -8 301 18 L301 18 Z " />
<glyph glyph-name="parenright" unicode="&#x29;" horiz-adv-x="321" d="M73 6 C75 8 88 18 90 20 C160 76 213 156 247 239 C277 314 289 401 273 481 C266 517 253 552 235 583 C210 625 175 661 135 688 C119 697 73 726 55 725 C23 722 18 679 47 667 C92 647 136 618 166 578 C184 554 198 527 207 498 C224 441 223 378 209 320 C185 215 124 121 38 55 C9 33 41 -12 73 6 L73 6 Z " />
<glyph glyph-name="asterisk" unicode="&#x2a;" horiz-adv-x="285" d="M226 473 C229 491 202 539 194 555 C201 561 232 589 240 593 C273 609 253 659 218 649 C210 647 185 627 179 621 C182 649 184 677 188 705 C194 741 143 754 130 720 C125 706 121 641 119 627 C112 634 83 661 74 665 C43 679 15 637 42 615 C60 600 78 584 95 568 C91 563 70 534 65 530 C63 528 53 519 52 517 C32 494 55 459 84 469 C91 472 110 490 115 496 C118 500 137 525 140 529 C149 512 159 495 165 477 C168 469 171 459 179 453 C197 439 224 450 226 473 L226 473 Z " />
<glyph glyph-name="plus" unicode="&#x2b;" horiz-adv-x="373" d="M207 117 C214 131 211 148 212 164 C212 176 214 253 214 265 C229 265 297 269 311 265 C344 257 364 299 337 318 C326 326 310 326 297 326 C270 326 242 325 215 325 C216 354 217 383 219 412 C220 426 222 441 215 453 C197 482 154 465 159 432 C161 422 159 411 158 400 C157 374 156 349 155 323 C137 323 118 323 100 324 C93 324 57 326 50 325 C20 321 14 279 42 267 C53 263 65 265 76 265 C102 264 128 263 154 264 C153 247 150 147 151 130 C152 100 192 90 207 117 L207 117 Z " />
<glyph glyph-name="comma" unicode="&#x2c;" horiz-adv-x="132" d="M68 -54 C78 -51 85 -42 92 -35 C103 -24 114 -9 114 6 C115 29 99 52 80 65 C76 69 57 78 51 78 C18 82 5 37 35 22 C41 19 48 15 52 10 C50 7 38 -5 36 -8 C20 -31 41 -61 68 -54 L68 -54 Z " />
<glyph glyph-name="hyphen" unicode="&#x2d;" horiz-adv-x="422" d="M379 274 C417 277 413 336 375 334 C313 330 251 327 188 327 C154 327 120 330 85 329 C78 328 44 328 37 326 C5 315 13 267 47 267 C82 268 117 269 151 268 C227 265 303 269 379 274 L379 274 Z " />
<glyph glyph-name="period" unicode="&#x2e;" horiz-adv-x="98" d="M78 76 C70 97 43 100 26 85 C13 73 14 52 28 40 C35 33 44 28 54 29 C77 30 87 55 78 76 L78 76 Z " />
<glyph glyph-name="slash" unicode="&#x2f;" horiz-adv-x="363" d="M62 -51 C71 -35 96 46 102 63 C124 127 143 191 166 255 C175 280 230 431 240 456 C264 517 292 577 316 639 C321 650 349 714 354 725 C369 755 331 783 307 760 C299 753 283 713 279 703 C263 669 251 634 236 599 C220 562 204 526 188 488 C177 460 116 292 106 264 C97 239 48 89 39 64 C35 51 15 -10 9 -21 C-12 -57 41 -86 62 -51 L62 -51 Z " />
<glyph glyph-name="zero" unicode="0" horiz-adv-x="511" d="M333 18 C366 39 392 73 409 107 C435 160 449 218 458 275 C472 367 466 465 439 554 C425 600 405 646 371 680 C347 703 315 720 283 726 C255 731 224 726 200 713 C163 692 135 656 114 620 C85 566 64 507 53 447 C40 374 43 297 58 224 C72 162 104 102 148 56 C171 31 202 10 235 3 C267 -4 305 1 333 18 L333 18 Z M255 60 C237 63 220 73 205 84 C182 103 164 128 149 154 C134 180 123 210 116 240 C96 335 103 441 139 531 C152 565 168 598 191 626 C202 640 216 654 232 662 C244 668 258 669 271 666 C284 664 297 661 308 654 C328 641 343 623 354 603 C373 569 385 531 393 493 C410 423 409 348 398 276 C389 224 376 171 351 125 C339 104 324 83 304 71 C289 61 273 58 255 60 L255 60 Z " />
<glyph glyph-name="one" unicode="1" horiz-adv-x="272" d="M188 5 C195 14 197 27 197 39 C197 74 198 286 199 321 C201 426 207 531 215 636 C216 658 218 679 221 700 C226 734 186 750 165 723 C158 714 152 704 145 695 C122 667 98 640 73 615 C68 610 37 587 33 581 C16 559 37 528 64 534 C87 540 137 595 153 613 C146 506 140 399 139 293 C138 266 137 103 137 77 C137 61 138 45 135 30 C130 0 168 -18 188 5 L188 5 Z " />
<glyph glyph-name="two" unicode="2" horiz-adv-x="475" d="M410 -10 C450 -9 447 51 406 49 C308 45 209 42 111 47 C133 74 263 235 284 263 C317 307 353 350 381 397 C399 427 415 460 423 494 C429 525 429 557 423 587 C416 622 399 657 373 682 C354 701 328 715 301 719 C267 724 232 722 199 713 C167 704 137 685 115 660 C90 631 74 594 66 557 C64 552 60 531 60 526 C61 489 113 487 120 524 C125 553 134 582 150 606 C161 624 177 639 196 648 C222 661 253 663 282 661 C294 660 306 657 316 651 C330 643 341 630 350 616 C364 592 369 562 368 535 C366 501 353 468 336 439 C307 388 268 343 234 296 C211 266 63 84 40 54 C27 35 25 10 44 -2 C52 -7 62 -9 72 -10 C184 -18 297 -15 410 -10 L410 -10 Z " />
<glyph glyph-name="three" unicode="3" horiz-adv-x="492" d="M335 23 C439 72 481 200 418 297 C393 335 353 364 312 383 C399 434 459 544 413 634 C393 672 357 703 318 717 C283 729 243 729 208 719 C179 711 152 694 130 674 C117 662 104 649 96 632 C91 624 87 615 87 605 C87 567 140 564 147 601 C150 616 182 640 194 648 C223 667 264 671 297 661 C324 652 349 630 361 604 C369 586 370 564 366 544 C360 513 339 484 316 462 C300 446 281 434 261 423 C253 419 215 405 205 404 C197 402 148 404 140 402 C103 393 110 341 147 342 C158 343 169 343 180 342 C197 341 215 346 232 344 C258 342 283 331 306 318 C334 303 360 280 375 252 C409 183 373 103 302 74 C228 43 126 63 88 133 C66 173 13 144 35 104 C91 4 231 -26 335 23 L335 23 Z " />
<glyph glyph-name="four" unicode="4" horiz-adv-x="467" d="M380 18 C381 24 379 52 379 58 C378 101 376 144 374 187 C382 187 391 187 399 186 C429 185 442 225 416 241 C404 249 387 247 373 247 C369 382 368 518 374 653 C374 660 376 690 375 696 C367 729 320 726 316 693 C312 657 308 463 309 427 C309 366 311 305 313 244 C271 242 229 238 186 238 C157 237 128 239 98 238 C119 327 141 415 166 503 C180 552 195 600 207 649 C208 653 212 671 214 675 C215 678 217 681 219 684 C230 712 196 737 172 718 C165 713 160 704 157 695 C154 685 140 627 137 617 C119 555 100 493 83 430 C76 403 39 253 34 224 C31 200 48 179 73 178 C89 178 181 177 197 178 C236 179 275 182 314 185 C316 130 319 76 320 21 C321 -16 376 -19 380 18 L380 18 Z " />
<glyph glyph-name="five" unicode="5" horiz-adv-x="473" d="M317 23 C345 40 370 65 387 93 C416 142 430 203 429 260 C428 315 412 374 377 417 C355 446 322 469 287 480 C234 496 172 489 121 467 C121 491 121 514 121 538 C122 553 122 648 122 664 C211 668 300 658 388 661 C429 663 426 723 384 721 C294 717 203 728 113 723 C110 723 107 723 104 724 C86 728 68 714 67 696 C67 694 64 686 64 685 C61 670 62 593 62 578 C62 563 61 475 60 460 C60 451 59 411 62 402 C67 384 87 375 104 383 C108 385 126 402 129 405 C157 422 192 428 225 428 C248 428 271 425 291 414 C313 402 331 382 344 360 C386 286 375 155 313 95 C299 83 284 72 266 66 C239 57 207 57 180 68 C163 74 147 86 135 101 C122 118 114 139 109 161 C108 167 109 174 107 180 C96 216 44 204 48 167 C51 145 55 122 65 102 C109 7 226 -30 317 23 L317 23 Z " />
<glyph glyph-name="six" unicode="6" horiz-adv-x="492" d="M326 21 C367 40 401 76 422 116 C442 154 454 197 456 239 C457 277 448 321 432 356 C422 379 408 401 390 419 C357 451 306 468 260 465 C206 461 154 431 116 394 C141 483 189 571 260 630 C279 646 300 660 322 672 C325 674 328 676 331 679 C355 703 326 743 296 726 C250 701 208 669 173 629 C116 564 76 480 54 395 C35 318 38 233 64 158 C81 110 110 63 152 35 C202 1 272 -5 326 21 L326 21 Z M195 79 C167 95 146 122 132 150 C114 186 105 228 103 269 C108 274 124 307 128 314 C153 355 195 389 241 401 C266 408 293 404 318 396 C366 380 396 300 396 248 C395 210 385 169 365 136 C350 112 329 89 304 76 C271 60 227 61 195 79 L195 79 Z " />
<glyph glyph-name="seven" unicode="7" horiz-adv-x="403" d="M158 24 C158 35 160 47 162 58 C187 202 224 345 281 479 C311 549 344 619 388 681 C399 696 393 718 376 725 C369 729 360 728 351 728 C249 728 147 721 45 721 C3 721 4 661 45 661 C78 661 275 667 308 668 C279 619 254 568 232 516 C167 368 127 208 100 48 C98 38 96 27 98 17 C105 -19 158 -13 158 24 L158 24 Z " />
<glyph glyph-name="eight" unicode="8" horiz-adv-x="458" d="M386 73 C401 91 411 114 415 137 C422 182 412 233 385 270 C361 304 324 327 288 349 C314 400 342 451 360 505 C363 516 367 526 370 537 C378 574 381 617 365 651 C355 670 340 687 321 697 C252 737 160 726 103 670 C81 648 65 616 62 585 C58 547 70 508 86 474 C102 440 124 410 149 382 C106 348 74 298 56 246 C43 210 43 168 53 132 C61 104 77 78 96 57 C175 -30 314 -20 386 73 L386 73 Z M233 386 C232 387 232 389 231 390 C228 398 218 405 209 407 C159 455 97 548 131 608 C159 658 231 673 283 650 C293 645 303 638 309 628 C316 616 318 600 317 585 C316 563 310 542 303 521 C286 473 261 428 238 383 C238 382 234 385 233 386 L233 386 Z M106 182 C105 217 121 252 140 282 C155 304 172 326 194 341 C234 308 283 288 321 253 C349 227 364 181 355 145 C348 113 320 87 292 72 C208 28 108 88 106 182 L106 182 Z " />
<glyph glyph-name="nine" unicode="9" horiz-adv-x="487" d="M201 -6 C213 -2 222 9 231 18 C286 72 334 134 372 201 C411 270 440 348 445 427 C447 455 448 484 444 512 C436 564 420 618 385 658 C350 698 290 721 237 719 C204 718 171 706 144 687 C25 602 -3 433 92 321 C125 282 178 256 229 255 C272 255 317 270 352 295 C314 204 253 122 182 54 C180 52 171 44 169 42 C149 19 172 -16 201 -6 L201 -6 Z M203 319 C183 324 165 334 150 348 C123 372 104 409 98 445 C91 483 98 525 114 560 C134 602 169 642 213 655 C252 667 300 653 331 627 C349 612 359 590 368 569 C384 530 388 487 387 446 C386 444 383 439 382 438 C367 397 340 358 304 335 C275 317 236 310 203 319 L203 319 Z " />
<glyph glyph-name="colon" unicode="&#x3a;" horiz-adv-x="113" d="M86 276 C92 298 72 319 49 313 C26 307 15 278 32 260 C50 242 79 252 86 276 L86 276 Z M85 55 C66 91 11 64 30 28 C50 -8 105 19 85 55 L85 55 Z " />
<glyph glyph-name="semicolon" unicode="&#x3b;" horiz-adv-x="136" d="M70 304 C41 314 17 280 37 256 C42 250 50 244 59 243 C98 236 107 290 70 304 L70 304 Z M67 -62 C82 -55 105 -19 110 -3 C114 10 114 25 108 38 C102 54 75 75 58 76 C25 79 13 34 43 19 C46 18 54 17 52 13 C51 7 37 -9 33 -13 C9 -37 36 -76 67 -62 L67 -62 Z " />
<glyph glyph-name="less" unicode="&#x3c;" horiz-adv-x="346" d="M290 105 C315 115 315 147 292 161 C262 178 118 265 92 288 C121 308 283 391 308 416 C334 442 298 484 268 461 C259 454 249 446 239 440 C219 428 92 358 72 346 C56 337 41 325 32 309 C27 299 26 287 29 276 C32 265 39 255 47 247 C61 234 77 224 93 214 C150 177 207 139 266 106 C273 103 282 102 290 105 L290 105 Z " />
<glyph glyph-name="equal" unicode="&#x3d;" horiz-adv-x="391" d="M333 350 C366 357 363 405 330 409 C323 410 317 408 310 408 C244 411 179 411 113 412 C105 412 60 414 52 414 C15 410 15 357 51 354 C79 351 241 351 269 350 C279 350 323 348 333 350 L333 350 Z M102 196 C133 197 307 197 337 196 C379 194 379 254 338 256 C310 257 144 256 116 256 C110 256 74 255 68 255 C61 255 55 257 49 255 C16 249 16 202 49 196 C67 193 85 196 102 196 L102 196 Z " />
<glyph glyph-name="greater" unicode="&#x3e;" horiz-adv-x="340" d="M89 130 C113 139 221 210 243 223 C260 233 277 242 293 254 C301 261 309 269 312 278 C316 289 316 300 311 310 C304 322 291 331 279 338 C264 347 177 395 162 403 C150 410 91 442 80 450 C78 452 75 454 72 456 C47 468 20 442 32 416 C37 405 49 398 60 391 C82 378 218 304 240 291 C219 278 94 201 72 188 C71 187 68 187 66 186 C29 169 50 116 89 130 L89 130 Z " />
<glyph glyph-name="question" unicode="&#x3f;" horiz-adv-x="371" d="M185 127 C185 131 188 151 188 156 C192 178 195 201 199 224 C206 264 217 303 234 340 C264 400 300 457 324 520 C336 553 346 590 339 624 C334 646 322 668 304 682 C279 702 244 710 213 707 C190 704 167 698 145 689 C128 682 111 674 98 662 C80 647 29 600 24 578 C16 545 60 526 78 555 C81 558 83 562 86 565 C108 591 133 619 165 633 C198 646 253 658 273 628 C292 600 266 534 252 503 C228 449 194 400 171 346 C153 303 144 257 137 212 C134 198 123 136 125 123 C129 82 189 86 185 127 L185 127 Z M183 -11 C200 8 187 38 161 39 C137 40 120 14 132 -7 C142 -27 169 -27 183 -11 L183 -11 Z " />
<glyph glyph-name="at" unicode="&#x40;" horiz-adv-x="645" d="M487 47 C503 55 557 86 567 100 C580 122 563 150 538 146 C527 145 518 136 510 130 C455 92 390 61 323 56 C275 53 224 65 184 90 C155 107 131 134 116 164 C97 201 92 248 101 289 C111 333 133 374 160 411 C196 461 250 503 310 520 C339 528 372 528 402 522 C436 514 470 503 497 483 C522 464 543 434 545 404 C548 361 533 315 508 280 C492 258 469 240 445 226 C440 223 426 217 420 219 C415 221 412 230 411 235 C403 263 413 294 423 321 C424 326 434 351 436 356 C438 364 435 374 430 381 C422 418 386 448 347 449 C325 450 301 443 283 430 C269 420 256 408 245 395 C221 366 201 334 188 299 C171 254 165 187 208 165 C218 160 232 159 243 163 C262 168 278 179 294 190 C314 204 333 220 349 239 C352 212 365 182 388 168 C402 160 420 157 436 160 C457 163 478 174 495 187 C516 201 535 218 551 238 C586 281 607 341 605 397 C605 420 600 443 590 464 C578 487 560 508 540 525 C510 551 471 567 432 576 C386 588 335 590 290 576 C238 560 189 530 151 492 C110 452 79 402 57 349 C38 300 31 242 43 190 C55 141 84 93 122 61 C171 19 239 -3 304 -4 C367 -5 431 16 487 47 L487 47 Z M242 272 C249 294 260 314 273 333 C286 351 300 371 320 382 C340 394 368 390 372 367 C347 333 324 298 294 268 C277 251 258 234 235 224 C233 240 236 257 242 272 L242 272 Z " />
<glyph glyph-name="A" unicode="A" horiz-adv-x="524" d="M100 9 C102 96 103 183 108 270 C145 269 374 273 411 272 C413 241 422 53 425 22 C427 -5 457 -18 476 0 C481 6 485 15 485 23 C480 81 464 421 457 479 C449 536 433 595 402 644 C384 670 359 694 330 707 C298 721 260 723 226 714 C200 707 175 691 155 671 C117 634 92 582 81 531 C46 362 43 187 40 14 C40 11 40 7 41 3 C50 -30 99 -25 100 9 L100 9 Z M113 330 C119 392 127 455 140 516 C150 563 173 613 212 641 C246 666 293 666 326 639 C350 620 365 590 376 561 C401 488 403 409 408 332 C372 333 149 329 113 330 L113 330 Z " />
<glyph glyph-name="&amp;#xc0;" unicode="&#xc0;" horiz-adv-x="524" d="M100 9 C102 96 103 183 108 270 C145 269 374 273 411 272 C413 241 422 53 425 22 C427 -5 457 -18 476 0 C481 6 485 15 485 23 C480 81 464 421 457 479 C449 536 433 595 402 644 C384 670 359 694 330 707 C298 721 260 723 226 714 C200 707 175 691 155 671 C117 634 92 582 81 531 C46 362 43 187 40 14 C40 11 40 7 41 3 C50 -30 99 -25 100 9 L100 9 Z M113 330 C119 392 127 455 140 516 C150 563 173 613 212 641 C246 666 293 666 326 639 C350 620 365 590 376 561 C401 488 403 409 408 332 C372 333 149 329 113 330 L113 330 Z " />
<glyph glyph-name="&amp;#xc1;" unicode="&#xc1;" horiz-adv-x="524" d="M100 9 C102 96 103 183 108 270 C145 269 374 273 411 272 C413 241 422 53 425 22 C427 -5 457 -18 476 0 C481 6 485 15 485 23 C480 81 464 421 457 479 C449 536 433 595 402 644 C384 670 359 694 330 707 C298 721 260 723 226 714 C200 707 175 691 155 671 C117 634 92 582 81 531 C46 362 43 187 40 14 C40 11 40 7 41 3 C50 -30 99 -25 100 9 L100 9 Z M113 330 C119 392 127 455 140 516 C150 563 173 613 212 641 C246 666 293 666 326 639 C350 620 365 590 376 561 C401 488 403 409 408 332 C372 333 149 329 113 330 L113 330 Z " />
<glyph glyph-name="&amp;#xc2;" unicode="&#xc2;" horiz-adv-x="524" d="M100 9 C102 96 103 183 108 270 C145 269 374 273 411 272 C413 241 422 53 425 22 C427 -5 457 -18 476 0 C481 6 485 15 485 23 C480 81 464 421 457 479 C449 536 433 595 402 644 C384 670 359 694 330 707 C298 721 260 723 226 714 C200 707 175 691 155 671 C117 634 92 582 81 531 C46 362 43 187 40 14 C40 11 40 7 41 3 C50 -30 99 -25 100 9 L100 9 Z M113 330 C119 392 127 455 140 516 C150 563 173 613 212 641 C246 666 293 666 326 639 C350 620 365 590 376 561 C401 488 403 409 408 332 C372 333 149 329 113 330 L113 330 Z " />
<glyph glyph-name="&amp;#xc3;" unicode="&#xc3;" horiz-adv-x="524" d="M100 9 C102 96 103 183 108 270 C145 269 374 273 411 272 C413 241 422 53 425 22 C427 -5 457 -18 476 0 C481 6 485 15 485 23 C480 81 464 421 457 479 C449 536 433 595 402 644 C384 670 359 694 330 707 C298 721 260 723 226 714 C200 707 175 691 155 671 C117 634 92 582 81 531 C46 362 43 187 40 14 C40 11 40 7 41 3 C50 -30 99 -25 100 9 L100 9 Z M113 330 C119 392 127 455 140 516 C150 563 173 613 212 641 C246 666 293 666 326 639 C350 620 365 590 376 561 C401 488 403 409 408 332 C372 333 149 329 113 330 L113 330 Z " />
<glyph glyph-name="&amp;#xc4;" unicode="&#xc4;" horiz-adv-x="524" d="M100 9 C102 96 103 183 108 270 C145 269 374 273 411 272 C413 241 422 53 425 22 C427 -5 457 -18 476 0 C481 6 485 15 485 23 C480 81 464 421 457 479 C449 536 433 595 402 644 C384 670 359 694 330 707 C298 721 260 723 226 714 C200 707 175 691 155 671 C117 634 92 582 81 531 C46 362 43 187 40 14 C40 11 40 7 41 3 C50 -30 99 -25 100 9 L100 9 Z M113 330 C119 392 127 455 140 516 C150 563 173 613 212 641 C246 666 293 666 326 639 C350 620 365 590 376 561 C401 488 403 409 408 332 C372 333 149 329 113 330 L113 330 Z " />
<glyph glyph-name="&amp;#xc5;" unicode="&#xc5;" horiz-adv-x="524" d="M100 9 C102 96 103 183 108 270 C145 269 374 273 411 272 C413 241 422 53 425 22 C427 -5 457 -18 476 0 C481 6 485 15 485 23 C480 81 464 421 457 479 C449 536 433 595 402 644 C384 670 359 694 330 707 C298 721 260 723 226 714 C200 707 175 691 155 671 C117 634 92 582 81 531 C46 362 43 187 40 14 C40 11 40 7 41 3 C50 -30 99 -25 100 9 L100 9 Z M113 330 C119 392 127 455 140 516 C150 563 173 613 212 641 C246 666 293 666 326 639 C350 620 365 590 376 561 C401 488 403 409 408 332 C372 333 149 329 113 330 L113 330 Z " />
<glyph glyph-name="B" unicode="B" horiz-adv-x="488" d="M320 49 C366 72 408 108 435 152 C458 191 470 243 457 287 C451 312 435 334 417 353 C388 382 348 401 308 411 C386 459 441 561 399 642 C386 667 364 689 340 703 C314 719 285 728 255 733 C215 739 173 738 133 735 C124 735 89 731 82 728 C65 720 59 698 70 683 C62 469 53 254 54 40 C54 24 72 7 87 7 C166 5 249 14 320 49 L320 49 Z M130 675 C169 677 210 679 249 673 C302 666 357 629 353 576 C352 560 347 543 339 529 C324 499 298 475 269 458 C225 432 172 421 120 416 C123 502 126 588 130 675 L130 675 Z M118 346 C176 364 241 367 300 351 C335 342 371 320 391 289 C399 277 403 261 402 247 C401 219 390 191 373 168 C348 133 309 108 269 92 C220 74 166 66 114 66 C114 160 115 253 118 346 L118 346 Z " />
<glyph glyph-name="C" unicode="C" horiz-adv-x="471" d="M299 5 C329 15 356 36 376 60 C408 100 426 151 433 201 C434 208 438 244 438 251 C438 285 392 294 380 263 C378 257 378 251 378 245 C375 206 368 166 350 131 C336 102 313 74 283 63 C253 52 217 58 191 79 C162 102 139 135 124 169 C108 204 100 243 96 282 C87 367 104 455 133 535 C145 570 165 603 191 629 C207 645 228 659 251 662 C276 666 303 654 322 637 C352 608 370 563 371 521 C371 487 416 477 429 509 C434 522 426 566 422 580 C397 675 310 746 216 715 C193 708 172 694 155 677 C122 648 98 608 81 567 C37 460 21 334 45 221 C58 160 86 100 128 55 C150 31 179 13 209 4 C238 -5 271 -4 299 5 L299 5 Z " />
<glyph glyph-name="&amp;#xc7;" unicode="&#xc7;" horiz-adv-x="471" d="M299 5 C329 15 356 36 376 60 C408 100 426 151 433 201 C434 208 438 244 438 251 C438 285 392 294 380 263 C378 257 378 251 378 245 C375 206 368 166 350 131 C336 102 313 74 283 63 C253 52 217 58 191 79 C162 102 139 135 124 169 C108 204 100 243 96 282 C87 367 104 455 133 535 C145 570 165 603 191 629 C207 645 228 659 251 662 C276 666 303 654 322 637 C352 608 370 563 371 521 C371 487 416 477 429 509 C434 522 426 566 422 580 C397 675 310 746 216 715 C193 708 172 694 155 677 C122 648 98 608 81 567 C37 460 21 334 45 221 C58 160 86 100 128 55 C150 31 179 13 209 4 C238 -5 271 -4 299 5 L299 5 Z " />
<glyph glyph-name="D" unicode="D" horiz-adv-x="506" d="M162 11 C198 24 233 42 267 62 C342 108 408 179 445 259 C475 322 487 397 477 466 C474 492 468 517 458 541 C437 590 399 635 354 664 C291 706 211 727 135 725 C126 725 92 722 84 718 C75 714 63 697 61 688 C59 679 61 669 62 660 C63 645 60 566 60 552 C58 496 58 154 58 99 C58 75 60 52 60 29 C60 16 68 5 80 0 C96 -5 146 5 162 11 L162 11 Z M118 317 C118 342 119 497 119 522 C119 541 123 645 121 664 C188 669 259 653 316 618 C342 602 364 581 381 556 C405 524 416 482 420 442 C426 382 409 317 380 263 C344 195 282 139 215 102 C185 85 153 68 119 61 C117 94 118 284 118 317 L118 317 Z " />
<glyph glyph-name="E" unicode="E" horiz-adv-x="446" d="M268 1 C288 2 380 9 399 16 C435 27 421 80 385 74 C348 67 310 64 272 61 C245 60 219 58 193 62 C178 64 163 68 152 76 C141 85 133 98 128 111 C118 134 116 159 115 183 C110 236 111 289 111 342 C133 342 263 346 285 346 C325 346 324 406 283 406 C226 405 169 405 113 402 C115 491 120 579 124 668 C156 669 344 675 376 675 C382 675 411 674 417 675 C450 683 446 733 412 734 C306 736 200 726 94 728 C73 728 58 708 65 688 C66 684 64 665 64 660 C58 540 51 419 51 298 C51 236 51 174 64 114 C71 82 88 50 114 30 C130 17 150 9 170 5 C202 -2 235 0 268 1 L268 1 Z " />
<glyph glyph-name="&amp;#xc8;" unicode="&#xc8;" horiz-adv-x="446" d="M268 1 C288 2 380 9 399 16 C435 27 421 80 385 74 C348 67 310 64 272 61 C245 60 219 58 193 62 C178 64 163 68 152 76 C141 85 133 98 128 111 C118 134 116 159 115 183 C110 236 111 289 111 342 C133 342 263 346 285 346 C325 346 324 406 283 406 C226 405 169 405 113 402 C115 491 120 579 124 668 C156 669 344 675 376 675 C382 675 411 674 417 675 C450 683 446 733 412 734 C306 736 200 726 94 728 C73 728 58 708 65 688 C66 684 64 665 64 660 C58 540 51 419 51 298 C51 236 51 174 64 114 C71 82 88 50 114 30 C130 17 150 9 170 5 C202 -2 235 0 268 1 L268 1 Z " />
<glyph glyph-name="&amp;#xc9;" unicode="&#xc9;" horiz-adv-x="446" d="M268 1 C288 2 380 9 399 16 C435 27 421 80 385 74 C348 67 310 64 272 61 C245 60 219 58 193 62 C178 64 163 68 152 76 C141 85 133 98 128 111 C118 134 116 159 115 183 C110 236 111 289 111 342 C133 342 263 346 285 346 C325 346 324 406 283 406 C226 405 169 405 113 402 C115 491 120 579 124 668 C156 669 344 675 376 675 C382 675 411 674 417 675 C450 683 446 733 412 734 C306 736 200 726 94 728 C73 728 58 708 65 688 C66 684 64 665 64 660 C58 540 51 419 51 298 C51 236 51 174 64 114 C71 82 88 50 114 30 C130 17 150 9 170 5 C202 -2 235 0 268 1 L268 1 Z " />
<glyph glyph-name="&amp;#xca;" unicode="&#xca;" horiz-adv-x="446" d="M268 1 C288 2 380 9 399 16 C435 27 421 80 385 74 C348 67 310 64 272 61 C245 60 219 58 193 62 C178 64 163 68 152 76 C141 85 133 98 128 111 C118 134 116 159 115 183 C110 236 111 289 111 342 C133 342 263 346 285 346 C325 346 324 406 283 406 C226 405 169 405 113 402 C115 491 120 579 124 668 C156 669 344 675 376 675 C382 675 411 674 417 675 C450 683 446 733 412 734 C306 736 200 726 94 728 C73 728 58 708 65 688 C66 684 64 665 64 660 C58 540 51 419 51 298 C51 236 51 174 64 114 C71 82 88 50 114 30 C130 17 150 9 170 5 C202 -2 235 0 268 1 L268 1 Z " />
<glyph glyph-name="&amp;#xcb;" unicode="&#xcb;" horiz-adv-x="446" d="M268 1 C288 2 380 9 399 16 C435 27 421 80 385 74 C348 67 310 64 272 61 C245 60 219 58 193 62 C178 64 163 68 152 76 C141 85 133 98 128 111 C118 134 116 159 115 183 C110 236 111 289 111 342 C133 342 263 346 285 346 C325 346 324 406 283 406 C226 405 169 405 113 402 C115 491 120 579 124 668 C156 669 344 675 376 675 C382 675 411 674 417 675 C450 683 446 733 412 734 C306 736 200 726 94 728 C73 728 58 708 65 688 C66 684 64 665 64 660 C58 540 51 419 51 298 C51 236 51 174 64 114 C71 82 88 50 114 30 C130 17 150 9 170 5 C202 -2 235 0 268 1 L268 1 Z " />
<glyph glyph-name="F" unicode="F" horiz-adv-x="443" d="M116 32 C116 87 117 142 118 197 C120 248 119 299 119 350 C184 350 250 352 315 350 C346 349 358 391 330 406 C325 409 320 410 314 410 C249 411 184 410 119 410 C120 439 120 468 120 498 C121 538 122 579 122 620 C122 637 124 654 125 670 C222 670 318 669 415 669 C422 669 430 673 435 678 C454 698 440 729 413 729 C311 729 209 730 107 730 C95 730 85 725 80 715 C77 710 71 705 69 700 C64 688 62 636 62 623 C62 587 59 365 59 329 C60 229 56 129 56 30 C56 22 60 14 65 9 C85 -10 116 4 116 32 L116 32 Z " />
<glyph glyph-name="G" unicode="G" horiz-adv-x="476" d="M299 5 C329 15 356 36 376 60 C398 87 413 120 423 154 C431 187 447 295 435 327 C431 341 417 349 402 347 C400 347 390 347 388 347 C348 347 308 346 268 342 C259 341 250 340 241 340 C206 340 199 292 231 281 C242 278 287 283 298 284 C325 286 352 287 379 287 C379 256 376 225 370 194 C362 151 342 104 307 77 C273 50 226 51 191 79 C162 102 139 135 124 169 C108 204 100 243 96 282 C87 367 104 455 133 535 C156 598 211 675 277 661 C298 657 319 643 333 626 C357 596 370 560 371 521 C371 480 429 478 431 519 C431 536 429 553 425 570 C414 617 388 664 349 692 C334 703 317 713 299 718 C277 724 252 725 230 719 C203 713 178 698 158 680 C123 650 98 609 81 567 C37 460 21 334 45 221 C58 160 86 100 128 55 C150 31 179 13 209 4 C238 -5 271 -4 299 5 L299 5 Z " />
<glyph glyph-name="H" unicode="H" horiz-adv-x="549" d="M489 24 C489 106 489 615 489 696 C489 738 429 736 429 695 C429 593 429 491 429 389 C325 388 222 383 119 382 C119 402 120 530 120 551 C120 571 118 678 122 698 C123 704 121 710 118 715 C105 736 75 735 64 713 C59 701 60 649 60 636 C59 561 58 103 60 27 C60 -9 113 -14 119 23 C120 29 119 63 119 70 C118 154 119 238 119 322 C222 324 325 328 429 329 C429 291 429 60 429 22 C429 -19 489 -17 489 24 L489 24 Z " />
<glyph glyph-name="I" unicode="I" horiz-adv-x="178" d="M119 30 C119 251 119 471 119 691 C119 695 119 698 117 702 C107 734 59 726 59 692 C59 472 59 251 59 31 C59 -11 119 -11 119 30 L119 30 Z " />
<glyph glyph-name="&amp;#xcc;" unicode="&#xcc;" horiz-adv-x="178" d="M119 30 C119 251 119 471 119 691 C119 695 119 698 117 702 C107 734 59 726 59 692 C59 472 59 251 59 31 C59 -11 119 -11 119 30 L119 30 Z " />
<glyph glyph-name="&amp;#xcd;" unicode="&#xcd;" horiz-adv-x="178" d="M119 30 C119 251 119 471 119 691 C119 695 119 698 117 702 C107 734 59 726 59 692 C59 472 59 251 59 31 C59 -11 119 -11 119 30 L119 30 Z " />
<glyph glyph-name="&amp;#xce;" unicode="&#xce;" horiz-adv-x="178" d="M119 30 C119 251 119 471 119 691 C119 695 119 698 117 702 C107 734 59 726 59 692 C59 472 59 251 59 31 C59 -11 119 -11 119 30 L119 30 Z " />
<glyph glyph-name="&amp;#xcf;" unicode="&#xcf;" horiz-adv-x="178" d="M119 30 C119 251 119 471 119 691 C119 695 119 698 117 702 C107 734 59 726 59 692 C59 472 59 251 59 31 C59 -11 119 -11 119 30 L119 30 Z " />
<glyph glyph-name="J" unicode="J" horiz-adv-x="441" d="M231 -8 C251 -5 272 1 289 12 C311 27 328 49 341 73 C358 105 368 141 375 176 C390 246 387 320 388 392 C389 427 391 638 392 674 C392 678 394 683 394 688 C395 704 382 718 365 719 C276 722 187 720 98 720 C91 720 83 717 78 711 C59 691 73 660 101 660 C178 660 255 660 332 660 C331 617 328 353 328 309 C327 243 319 174 293 112 C283 89 266 64 241 56 C190 39 126 67 105 117 C79 179 84 256 107 320 C120 355 65 376 51 341 C34 297 26 248 27 201 C28 171 34 140 43 111 C66 35 151 -19 231 -8 L231 -8 Z " />
<glyph glyph-name="K" unicode="K" horiz-adv-x="445" d="M424 53 C338 144 248 232 155 317 C177 349 203 378 227 408 C280 473 328 540 378 607 C383 615 417 659 422 667 C441 698 398 729 373 702 C370 698 354 676 351 671 C300 603 250 533 197 466 C187 453 125 377 115 363 C115 377 115 462 115 476 C114 546 112 617 116 688 C118 722 70 732 58 700 C57 697 57 693 56 690 C52 640 54 371 56 322 C57 258 61 194 65 129 C67 112 68 40 76 23 C90 -7 136 6 132 40 C129 69 119 241 117 270 C209 186 298 100 383 9 C388 4 396 1 403 1 C431 1 443 33 424 53 L424 53 Z " />
<glyph glyph-name="L" unicode="L" horiz-adv-x="342" d="M306 7 C312 7 319 6 325 9 C351 18 351 56 325 65 C319 67 311 67 305 67 C246 66 186 64 128 66 C117 153 114 607 117 695 C119 735 60 737 57 696 C53 634 59 283 61 220 C62 187 61 62 76 32 C81 22 92 13 103 10 C133 2 274 6 306 7 L306 7 Z " />
<glyph glyph-name="M" unicode="M" horiz-adv-x="631" d="M125 31 C115 209 115 388 120 566 C172 451 229 338 274 220 C279 205 287 187 301 180 C319 171 340 181 349 200 C369 243 493 512 513 556 C509 383 509 211 512 38 C512 38 511 35 511 35 C508 7 541 -10 562 9 C569 16 572 27 572 37 C570 181 568 326 571 470 C572 499 576 667 575 696 C573 727 530 735 517 706 C492 653 341 326 317 274 C257 420 184 561 124 707 C122 711 120 715 117 719 C101 743 66 734 62 706 C61 699 62 662 62 655 C61 531 54 406 57 282 C57 250 63 60 65 28 C67 -13 127 -11 125 31 L125 31 Z " />
<glyph glyph-name="N" unicode="N" horiz-adv-x="596" d="M533 25 C533 247 540 469 540 690 C540 724 491 730 481 697 C480 694 480 690 480 686 C480 495 474 304 473 112 C467 122 432 179 426 188 C314 356 214 531 116 708 C99 738 56 726 58 692 C59 679 61 666 61 653 C62 560 61 468 59 376 C57 263 63 150 57 37 C55 -5 115 -9 117 33 C122 143 118 253 119 364 C120 435 121 505 121 576 C201 434 285 294 374 157 C405 110 432 62 465 16 C471 8 477 0 486 -4 C509 -13 533 1 533 25 L533 25 Z " />
<glyph glyph-name="&amp;#xd1;" unicode="&#xd1;" horiz-adv-x="596" d="M533 25 C533 247 540 469 540 690 C540 724 491 730 481 697 C480 694 480 690 480 686 C480 495 474 304 473 112 C467 122 432 179 426 188 C314 356 214 531 116 708 C99 738 56 726 58 692 C59 679 61 666 61 653 C62 560 61 468 59 376 C57 263 63 150 57 37 C55 -5 115 -9 117 33 C122 143 118 253 119 364 C120 435 121 505 121 576 C201 434 285 294 374 157 C405 110 432 62 465 16 C471 8 477 0 486 -4 C509 -13 533 1 533 25 L533 25 Z " />
<glyph glyph-name="O" unicode="O" horiz-adv-x="533" d="M331 12 C369 30 400 64 421 100 C471 185 494 288 498 388 C500 419 500 451 495 482 C487 537 464 592 432 637 C405 675 362 705 316 716 C291 722 262 723 237 715 C208 706 183 688 162 667 C123 631 93 584 73 535 C35 444 23 337 39 239 C51 169 87 98 138 49 C163 25 195 7 228 0 C262 -8 300 -3 331 12 L331 12 Z M250 57 C219 61 189 80 168 104 C153 121 140 139 129 159 C109 197 97 240 93 283 C88 347 96 414 115 476 C129 522 152 567 184 604 C203 627 228 648 256 658 C272 664 313 656 328 649 C362 632 388 600 406 566 C424 531 436 491 438 451 C444 350 425 244 381 153 C366 122 345 92 317 73 C298 60 273 54 250 57 L250 57 Z " />
<glyph glyph-name="&amp;#xd2;" unicode="&#xd2;" horiz-adv-x="533" d="M331 12 C369 30 400 64 421 100 C471 185 494 288 498 388 C500 419 500 451 495 482 C487 537 464 592 432 637 C405 675 362 705 316 716 C291 722 262 723 237 715 C208 706 183 688 162 667 C123 631 93 584 73 535 C35 444 23 337 39 239 C51 169 87 98 138 49 C163 25 195 7 228 0 C262 -8 300 -3 331 12 L331 12 Z M250 57 C219 61 189 80 168 104 C153 121 140 139 129 159 C109 197 97 240 93 283 C88 347 96 414 115 476 C129 522 152 567 184 604 C203 627 228 648 256 658 C272 664 313 656 328 649 C362 632 388 600 406 566 C424 531 436 491 438 451 C444 350 425 244 381 153 C366 122 345 92 317 73 C298 60 273 54 250 57 L250 57 Z " />
<glyph glyph-name="&amp;#xd3;" unicode="&#xd3;" horiz-adv-x="533" d="M331 12 C369 30 400 64 421 100 C471 185 494 288 498 388 C500 419 500 451 495 482 C487 537 464 592 432 637 C405 675 362 705 316 716 C291 722 262 723 237 715 C208 706 183 688 162 667 C123 631 93 584 73 535 C35 444 23 337 39 239 C51 169 87 98 138 49 C163 25 195 7 228 0 C262 -8 300 -3 331 12 L331 12 Z M250 57 C219 61 189 80 168 104 C153 121 140 139 129 159 C109 197 97 240 93 283 C88 347 96 414 115 476 C129 522 152 567 184 604 C203 627 228 648 256 658 C272 664 313 656 328 649 C362 632 388 600 406 566 C424 531 436 491 438 451 C444 350 425 244 381 153 C366 122 345 92 317 73 C298 60 273 54 250 57 L250 57 Z " />
<glyph glyph-name="&amp;#xd4;" unicode="&#xd4;" horiz-adv-x="533" d="M331 12 C369 30 400 64 421 100 C471 185 494 288 498 388 C500 419 500 451 495 482 C487 537 464 592 432 637 C405 675 362 705 316 716 C291 722 262 723 237 715 C208 706 183 688 162 667 C123 631 93 584 73 535 C35 444 23 337 39 239 C51 169 87 98 138 49 C163 25 195 7 228 0 C262 -8 300 -3 331 12 L331 12 Z M250 57 C219 61 189 80 168 104 C153 121 140 139 129 159 C109 197 97 240 93 283 C88 347 96 414 115 476 C129 522 152 567 184 604 C203 627 228 648 256 658 C272 664 313 656 328 649 C362 632 388 600 406 566 C424 531 436 491 438 451 C444 350 425 244 381 153 C366 122 345 92 317 73 C298 60 273 54 250 57 L250 57 Z " />
<glyph glyph-name="&amp;#xd5;" unicode="&#xd5;" horiz-adv-x="533" d="M331 12 C369 30 400 64 421 100 C471 185 494 288 498 388 C500 419 500 451 495 482 C487 537 464 592 432 637 C405 675 362 705 316 716 C291 722 262 723 237 715 C208 706 183 688 162 667 C123 631 93 584 73 535 C35 444 23 337 39 239 C51 169 87 98 138 49 C163 25 195 7 228 0 C262 -8 300 -3 331 12 L331 12 Z M250 57 C219 61 189 80 168 104 C153 121 140 139 129 159 C109 197 97 240 93 283 C88 347 96 414 115 476 C129 522 152 567 184 604 C203 627 228 648 256 658 C272 664 313 656 328 649 C362 632 388 600 406 566 C424 531 436 491 438 451 C444 350 425 244 381 153 C366 122 345 92 317 73 C298 60 273 54 250 57 L250 57 Z " />
<glyph glyph-name="&amp;#xd6;" unicode="&#xd6;" horiz-adv-x="533" d="M331 12 C369 30 400 64 421 100 C471 185 494 288 498 388 C500 419 500 451 495 482 C487 537 464 592 432 637 C405 675 362 705 316 716 C291 722 262 723 237 715 C208 706 183 688 162 667 C123 631 93 584 73 535 C35 444 23 337 39 239 C51 169 87 98 138 49 C163 25 195 7 228 0 C262 -8 300 -3 331 12 L331 12 Z M250 57 C219 61 189 80 168 104 C153 121 140 139 129 159 C109 197 97 240 93 283 C88 347 96 414 115 476 C129 522 152 567 184 604 C203 627 228 648 256 658 C272 664 313 656 328 649 C362 632 388 600 406 566 C424 531 436 491 438 451 C444 350 425 244 381 153 C366 122 345 92 317 73 C298 60 273 54 250 57 L250 57 Z " />
<glyph glyph-name="&amp;#xd8;" unicode="&#xd8;" horiz-adv-x="533" d="M331 12 C369 30 400 64 421 100 C471 185 494 288 498 388 C500 419 500 451 495 482 C487 537 464 592 432 637 C405 675 362 705 316 716 C291 722 262 723 237 715 C208 706 183 688 162 667 C123 631 93 584 73 535 C35 444 23 337 39 239 C51 169 87 98 138 49 C163 25 195 7 228 0 C262 -8 300 -3 331 12 L331 12 Z M250 57 C219 61 189 80 168 104 C153 121 140 139 129 159 C109 197 97 240 93 283 C88 347 96 414 115 476 C129 522 152 567 184 604 C203 627 228 648 256 658 C272 664 313 656 328 649 C362 632 388 600 406 566 C424 531 436 491 438 451 C444 350 425 244 381 153 C366 122 345 92 317 73 C298 60 273 54 250 57 L250 57 Z " />
<glyph glyph-name="P" unicode="P" horiz-adv-x="431" d="M130 33 C130 56 124 199 124 222 C193 235 261 268 314 315 C355 353 389 403 405 457 C416 497 419 541 408 581 C403 599 394 617 382 633 C360 663 327 687 293 700 C240 720 182 725 127 725 C121 725 90 726 84 725 C69 723 54 708 54 692 C49 470 64 249 70 28 C71 19 76 10 83 5 C104 -10 131 7 130 33 L130 33 Z M113 665 C166 665 222 664 271 644 C293 635 315 621 330 602 C352 575 360 535 354 500 C346 456 324 414 295 381 C250 331 186 297 122 283 C117 410 112 537 113 665 L113 665 Z " />
<glyph glyph-name="Q" unicode="Q" horiz-adv-x="533" d="M469 -119 C465 -111 441 -74 436 -67 C413 -33 391 3 370 38 C390 56 407 77 421 100 C471 185 494 288 498 388 C500 419 500 451 495 482 C487 537 464 592 432 637 C405 675 362 705 316 716 C291 722 262 723 237 715 C208 706 183 688 162 667 C123 631 93 584 73 535 C35 444 23 337 39 239 C51 169 87 98 138 49 C163 25 195 7 228 0 C258 -7 290 -4 319 7 C348 -42 380 -90 411 -138 C414 -143 416 -149 420 -153 C444 -177 483 -150 469 -119 L469 -119 Z M250 57 C219 61 189 80 168 104 C153 121 140 139 129 159 C109 197 97 240 93 283 C88 347 96 414 115 476 C129 522 152 567 184 604 C203 627 228 648 256 658 C272 664 313 656 328 649 C362 632 388 600 406 566 C424 531 436 491 438 451 C444 350 425 244 381 153 C370 130 356 108 339 90 C334 98 307 143 303 150 C301 153 301 157 299 160 C282 189 237 172 244 139 C245 132 248 125 252 119 C264 99 275 79 287 60 C275 56 262 55 250 57 L250 57 Z " />
<glyph glyph-name="R" unicode="R" horiz-adv-x="471" d="M441 53 C346 135 253 220 156 299 C208 317 259 337 305 366 C344 390 380 422 404 461 C420 488 429 519 430 550 C432 583 421 619 400 644 C385 664 363 679 340 689 C304 706 264 715 225 719 C179 724 133 725 87 725 C66 725 51 704 59 684 C61 679 59 657 59 652 C59 620 61 588 61 556 C61 486 58 416 58 346 C58 306 61 70 60 30 C59 -7 117 -10 119 27 C121 56 118 224 118 253 C215 174 306 90 401 8 C432 -19 472 25 441 53 L441 53 Z M119 443 C119 480 121 517 121 554 C121 591 119 628 120 665 C168 665 217 662 264 652 C295 645 328 634 350 611 C382 578 371 515 343 478 C321 449 291 426 259 408 C214 383 166 365 118 350 C118 381 118 412 119 443 L119 443 Z " />
<glyph glyph-name="S" unicode="S" horiz-adv-x="432" d="M279 7 C327 19 374 57 393 103 C410 147 399 204 372 243 C343 286 297 316 253 343 C211 369 165 394 134 433 C104 470 85 525 95 572 C102 604 121 636 149 652 C185 673 252 659 284 633 C311 610 323 570 324 534 C324 532 324 522 324 520 C329 484 382 485 384 522 C384 524 384 538 384 541 C382 581 370 623 345 655 C322 685 290 705 253 714 C221 723 186 726 155 718 C128 712 104 696 85 677 C58 648 40 609 34 570 C27 528 38 483 56 445 C77 401 112 362 153 335 C200 303 253 277 296 239 C313 224 329 205 336 183 C340 170 343 156 341 143 C339 113 313 86 287 74 C255 59 216 57 183 67 C166 72 149 80 136 91 C124 102 114 116 109 132 C105 143 106 156 99 165 C83 185 51 177 46 152 C44 139 49 124 53 111 C63 75 94 44 127 25 C172 1 229 -5 279 7 L279 7 Z " />
<glyph glyph-name="T" unicode="T" horiz-adv-x="398" d="M226 29 C228 69 223 300 222 341 C221 452 220 563 225 674 C270 675 316 676 362 676 C368 675 374 675 380 677 C413 686 407 734 372 735 C342 736 164 732 134 731 C118 730 37 728 22 725 C-15 717 -7 662 30 666 C47 668 147 671 165 672 C157 486 163 300 167 114 C167 105 167 51 167 42 C166 35 165 28 167 22 C176 -11 224 -5 226 29 L226 29 Z " />
<glyph glyph-name="U" unicode="U" horiz-adv-x="524" d="M308 9 C336 15 362 33 382 53 C410 80 430 116 443 152 C458 199 467 249 472 298 C485 417 477 537 474 656 C474 660 474 684 474 688 C471 722 424 726 415 694 C413 689 414 684 414 678 C415 599 419 520 420 441 C420 360 414 278 394 200 C387 168 373 137 354 111 C342 95 326 80 307 72 C276 58 237 59 206 73 C187 82 172 98 161 114 C141 142 129 176 121 209 C94 315 104 428 111 538 C114 584 117 630 125 675 C126 681 128 687 128 692 C128 723 88 734 72 708 C64 694 59 635 58 619 C51 549 47 479 45 409 C41 314 48 213 86 125 C104 82 137 41 179 20 C217 0 266 -2 308 9 L308 9 Z " />
<glyph glyph-name="&amp;#xd9;" unicode="&#xd9;" horiz-adv-x="524" d="M308 9 C336 15 362 33 382 53 C410 80 430 116 443 152 C458 199 467 249 472 298 C485 417 477 537 474 656 C474 660 474 684 474 688 C471 722 424 726 415 694 C413 689 414 684 414 678 C415 599 419 520 420 441 C420 360 414 278 394 200 C387 168 373 137 354 111 C342 95 326 80 307 72 C276 58 237 59 206 73 C187 82 172 98 161 114 C141 142 129 176 121 209 C94 315 104 428 111 538 C114 584 117 630 125 675 C126 681 128 687 128 692 C128 723 88 734 72 708 C64 694 59 635 58 619 C51 549 47 479 45 409 C41 314 48 213 86 125 C104 82 137 41 179 20 C217 0 266 -2 308 9 L308 9 Z " />
<glyph glyph-name="&amp;#xda;" unicode="&#xda;" horiz-adv-x="524" d="M308 9 C336 15 362 33 382 53 C410 80 430 116 443 152 C458 199 467 249 472 298 C485 417 477 537 474 656 C474 660 474 684 474 688 C471 722 424 726 415 694 C413 689 414 684 414 678 C415 599 419 520 420 441 C420 360 414 278 394 200 C387 168 373 137 354 111 C342 95 326 80 307 72 C276 58 237 59 206 73 C187 82 172 98 161 114 C141 142 129 176 121 209 C94 315 104 428 111 538 C114 584 117 630 125 675 C126 681 128 687 128 692 C128 723 88 734 72 708 C64 694 59 635 58 619 C51 549 47 479 45 409 C41 314 48 213 86 125 C104 82 137 41 179 20 C217 0 266 -2 308 9 L308 9 Z " />
<glyph glyph-name="&amp;#xdb;" unicode="&#xdb;" horiz-adv-x="524" d="M308 9 C336 15 362 33 382 53 C410 80 430 116 443 152 C458 199 467 249 472 298 C485 417 477 537 474 656 C474 660 474 684 474 688 C471 722 424 726 415 694 C413 689 414 684 414 678 C415 599 419 520 420 441 C420 360 414 278 394 200 C387 168 373 137 354 111 C342 95 326 80 307 72 C276 58 237 59 206 73 C187 82 172 98 161 114 C141 142 129 176 121 209 C94 315 104 428 111 538 C114 584 117 630 125 675 C126 681 128 687 128 692 C128 723 88 734 72 708 C64 694 59 635 58 619 C51 549 47 479 45 409 C41 314 48 213 86 125 C104 82 137 41 179 20 C217 0 266 -2 308 9 L308 9 Z " />
<glyph glyph-name="&amp;#xdc;" unicode="&#xdc;" horiz-adv-x="524" d="M308 9 C336 15 362 33 382 53 C410 80 430 116 443 152 C458 199 467 249 472 298 C485 417 477 537 474 656 C474 660 474 684 474 688 C471 722 424 726 415 694 C413 689 414 684 414 678 C415 599 419 520 420 441 C420 360 414 278 394 200 C387 168 373 137 354 111 C342 95 326 80 307 72 C276 58 237 59 206 73 C187 82 172 98 161 114 C141 142 129 176 121 209 C94 315 104 428 111 538 C114 584 117 630 125 675 C126 681 128 687 128 692 C128 723 88 734 72 708 C64 694 59 635 58 619 C51 549 47 479 45 409 C41 314 48 213 86 125 C104 82 137 41 179 20 C217 0 266 -2 308 9 L308 9 Z " />
<glyph glyph-name="V" unicode="V" horiz-adv-x="502" d="M250 4 C273 15 284 42 294 64 C323 123 341 186 359 249 C364 266 397 366 403 383 C411 409 459 568 467 594 C470 604 484 652 486 662 C487 674 493 685 491 697 C486 730 439 731 432 698 C427 672 420 646 412 621 C384 518 351 417 318 316 C292 234 271 149 231 73 C206 139 191 208 172 276 C156 333 85 651 75 709 C70 743 21 741 16 708 C16 704 16 700 17 696 C26 644 91 351 104 300 C113 263 164 77 179 43 C192 13 221 -9 250 4 L250 4 Z " />
<glyph glyph-name="W" unicode="W" horiz-adv-x="756" d="M550 11 C561 19 568 32 576 45 C606 97 625 155 641 213 C652 253 663 293 672 333 C700 453 717 575 735 696 C740 733 686 744 676 708 C675 705 673 687 672 683 C650 534 628 384 587 240 C571 184 555 128 526 78 C500 123 487 176 474 226 C451 320 426 414 411 509 C410 522 403 579 398 590 C390 610 365 615 350 601 C338 589 324 535 320 519 C318 510 304 456 302 448 C295 421 248 255 241 228 C228 179 220 128 205 79 C187 113 176 151 166 188 C150 244 139 302 128 360 C106 473 92 589 91 705 C91 711 88 717 84 721 C67 742 31 732 31 704 C31 568 53 432 79 298 C92 233 128 52 182 14 C198 3 217 2 232 13 C243 20 250 32 255 44 C266 67 292 185 298 209 C305 238 355 412 362 441 C378 360 399 280 419 200 C432 150 447 99 471 53 C488 20 520 -10 550 11 L550 11 Z " />
<glyph glyph-name="X" unicode="X" horiz-adv-x="475" d="M446 43 C386 144 327 246 270 349 C295 397 322 444 349 492 C362 515 441 652 455 674 C475 706 434 738 408 712 C405 708 403 704 401 700 C395 689 358 628 352 618 C312 549 273 480 235 410 C215 446 90 669 69 704 C53 734 7 714 15 681 C16 678 18 674 20 671 C81 563 141 455 201 347 C180 307 62 82 37 44 C17 12 61 -20 86 8 C90 13 103 37 106 42 C122 72 220 256 236 285 C289 193 342 101 396 10 C400 4 408 -1 415 -3 C442 -8 460 20 446 43 L446 43 Z " />
<glyph glyph-name="Y" unicode="Y" horiz-adv-x="501" d="M302 15 C306 20 309 27 308 33 C306 57 303 193 303 217 C303 254 303 291 299 327 C307 341 352 427 360 441 C404 523 449 604 496 684 C515 717 464 747 445 715 C381 609 322 500 264 390 C197 496 122 597 60 706 C58 710 55 714 52 717 C27 741 -12 711 5 681 C73 562 155 452 227 335 C229 333 236 321 237 319 C238 318 240 317 240 315 C244 281 246 85 247 51 C248 47 248 31 249 28 C253 2 287 -7 302 15 L302 15 Z " />
<glyph glyph-name="&amp;#xdd;" unicode="&#xdd;" horiz-adv-x="501" d="M302 15 C306 20 309 27 308 33 C306 57 303 193 303 217 C303 254 303 291 299 327 C307 341 352 427 360 441 C404 523 449 604 496 684 C515 717 464 747 445 715 C381 609 322 500 264 390 C197 496 122 597 60 706 C58 710 55 714 52 717 C27 741 -12 711 5 681 C73 562 155 452 227 335 C229 333 236 321 237 319 C238 318 240 317 240 315 C244 281 246 85 247 51 C248 47 248 31 249 28 C253 2 287 -7 302 15 L302 15 Z " />
<glyph glyph-name="&amp;#x178;" unicode="&#x178;" horiz-adv-x="501" d="M302 15 C306 20 309 27 308 33 C306 57 303 193 303 217 C303 254 303 291 299 327 C307 341 352 427 360 441 C404 523 449 604 496 684 C515 717 464 747 445 715 C381 609 322 500 264 390 C197 496 122 597 60 706 C58 710 55 714 52 717 C27 741 -12 711 5 681 C73 562 155 452 227 335 C229 333 236 321 237 319 C238 318 240 317 240 315 C244 281 246 85 247 51 C248 47 248 31 249 28 C253 2 287 -7 302 15 L302 15 Z " />
<glyph glyph-name="Z" unicode="Z" horiz-adv-x="472" d="M453 46 C447 52 439 56 430 56 C317 57 203 57 90 57 C148 145 200 236 252 328 C317 442 382 557 447 672 C460 695 450 724 423 726 C382 729 146 726 104 726 C63 726 62 666 103 666 C194 666 284 667 375 667 C344 612 158 283 127 229 C97 179 66 130 34 82 C25 69 16 57 9 44 C-4 21 16 -2 41 -2 C170 -2 299 -3 428 -4 C455 -4 471 27 453 46 L453 46 Z " />
<glyph glyph-name="bracketleft" unicode="&#x5b;" horiz-adv-x="257" d="M202 -5 C235 4 229 52 195 53 C185 54 131 54 121 56 C121 86 120 275 119 306 C119 382 119 459 121 535 C122 579 125 624 125 668 C133 668 180 668 187 668 C225 666 231 720 195 727 C184 729 125 728 114 729 C104 729 93 732 84 729 C72 725 64 713 63 701 C63 698 63 683 64 680 C64 679 65 677 65 676 C65 657 61 546 61 527 C59 417 59 307 60 198 C61 177 62 59 61 39 C61 38 59 32 59 31 C57 12 73 -4 92 -3 C94 -3 100 -1 101 -2 C126 -7 152 -6 178 -6 C186 -6 195 -8 202 -5 L202 -5 Z " />
<glyph glyph-name="backslash" unicode="&#x5c;" horiz-adv-x="371" d="M369 -25 C370 -14 353 20 349 30 C332 68 241 290 225 328 C203 383 184 438 162 492 C133 567 104 641 79 717 C75 728 75 742 68 751 C52 770 20 762 15 737 C12 720 34 664 39 648 C56 602 160 330 178 284 C189 258 253 100 264 74 C270 60 304 -12 308 -27 C317 -61 366 -60 369 -25 L369 -25 Z " />
<glyph glyph-name="bracketright" unicode="&#x5d;" horiz-adv-x="258" d="M135 -5 C144 -4 153 0 162 -2 C184 -7 204 14 198 36 C195 45 197 89 197 98 C198 258 201 418 196 577 C195 592 190 663 193 677 C193 680 195 682 195 685 C195 689 194 693 194 697 C196 715 182 730 164 730 C161 731 144 729 141 729 C130 728 74 729 63 727 C27 720 33 666 71 668 C78 668 125 668 133 668 C133 627 136 587 137 546 C139 466 139 386 139 306 C138 276 137 86 137 56 C126 54 67 55 57 52 C24 44 27 -3 61 -6 C71 -8 125 -5 135 -5 L135 -5 Z " />
<glyph glyph-name="asciicircum" unicode="&#x5e;" horiz-adv-x="313" d="M79 480 C92 501 150 605 158 628 C167 612 223 515 231 498 C249 465 302 492 284 526 C271 551 204 673 186 696 C171 714 145 717 128 701 C112 687 109 664 101 645 C93 627 45 539 35 523 C34 521 28 513 28 511 C11 478 59 449 79 480 L79 480 Z " />
<glyph glyph-name="underscore" unicode="&#x5f;" horiz-adv-x="544" d="M514 -24 C370 -17 226 -27 82 -23 C72 -22 32 -18 23 -21 C-10 -29 -6 -78 28 -80 C189 -88 351 -76 512 -84 C553 -86 556 -26 514 -24 L514 -24 Z " />
<glyph glyph-name="a" unicode="a" horiz-adv-x="516" d="M96 9 C98 96 99 183 104 270 C141 269 370 273 407 272 C409 241 418 53 421 22 C423 -5 453 -18 472 0 C477 6 481 15 481 23 C476 81 460 421 453 479 C445 536 429 595 398 644 C380 670 355 694 326 707 C294 721 256 723 222 714 C196 707 171 691 151 671 C113 634 88 582 77 531 C42 362 39 187 36 14 C36 11 36 7 37 3 C46 -30 95 -25 96 9 L96 9 Z M109 330 C115 392 123 455 136 516 C146 563 169 613 208 641 C242 666 289 666 322 639 C346 620 361 590 372 561 C397 488 399 409 404 332 C368 333 145 329 109 330 L109 330 Z " />
<glyph glyph-name="&amp;#xe0;" unicode="&#xe0;" horiz-adv-x="516" d="M96 9 C98 96 99 183 104 270 C141 269 370 273 407 272 C409 241 418 53 421 22 C423 -5 453 -18 472 0 C477 6 481 15 481 23 C476 81 460 421 453 479 C445 536 429 595 398 644 C380 670 355 694 326 707 C294 721 256 723 222 714 C196 707 171 691 151 671 C113 634 88 582 77 531 C42 362 39 187 36 14 C36 11 36 7 37 3 C46 -30 95 -25 96 9 L96 9 Z M109 330 C115 392 123 455 136 516 C146 563 169 613 208 641 C242 666 289 666 322 639 C346 620 361 590 372 561 C397 488 399 409 404 332 C368 333 145 329 109 330 L109 330 Z " />
<glyph glyph-name="&amp;#xe1;" unicode="&#xe1;" horiz-adv-x="516" d="M96 9 C98 96 99 183 104 270 C141 269 370 273 407 272 C409 241 418 53 421 22 C423 -5 453 -18 472 0 C477 6 481 15 481 23 C476 81 460 421 453 479 C445 536 429 595 398 644 C380 670 355 694 326 707 C294 721 256 723 222 714 C196 707 171 691 151 671 C113 634 88 582 77 531 C42 362 39 187 36 14 C36 11 36 7 37 3 C46 -30 95 -25 96 9 L96 9 Z M109 330 C115 392 123 455 136 516 C146 563 169 613 208 641 C242 666 289 666 322 639 C346 620 361 590 372 561 C397 488 399 409 404 332 C368 333 145 329 109 330 L109 330 Z " />
<glyph glyph-name="&amp;#xe2;" unicode="&#xe2;" horiz-adv-x="516" d="M96 9 C98 96 99 183 104 270 C141 269 370 273 407 272 C409 241 418 53 421 22 C423 -5 453 -18 472 0 C477 6 481 15 481 23 C476 81 460 421 453 479 C445 536 429 595 398 644 C380 670 355 694 326 707 C294 721 256 723 222 714 C196 707 171 691 151 671 C113 634 88 582 77 531 C42 362 39 187 36 14 C36 11 36 7 37 3 C46 -30 95 -25 96 9 L96 9 Z M109 330 C115 392 123 455 136 516 C146 563 169 613 208 641 C242 666 289 666 322 639 C346 620 361 590 372 561 C397 488 399 409 404 332 C368 333 145 329 109 330 L109 330 Z " />
<glyph glyph-name="&amp;#xe3;" unicode="&#xe3;" horiz-adv-x="516" d="M96 9 C98 96 99 183 104 270 C141 269 370 273 407 272 C409 241 418 53 421 22 C423 -5 453 -18 472 0 C477 6 481 15 481 23 C476 81 460 421 453 479 C445 536 429 595 398 644 C380 670 355 694 326 707 C294 721 256 723 222 714 C196 707 171 691 151 671 C113 634 88 582 77 531 C42 362 39 187 36 14 C36 11 36 7 37 3 C46 -30 95 -25 96 9 L96 9 Z M109 330 C115 392 123 455 136 516 C146 563 169 613 208 641 C242 666 289 666 322 639 C346 620 361 590 372 561 C397 488 399 409 404 332 C368 333 145 329 109 330 L109 330 Z " />
<glyph glyph-name="&amp;#xe4;" unicode="&#xe4;" horiz-adv-x="516" d="M96 9 C98 96 99 183 104 270 C141 269 370 273 407 272 C409 241 418 53 421 22 C423 -5 453 -18 472 0 C477 6 481 15 481 23 C476 81 460 421 453 479 C445 536 429 595 398 644 C380 670 355 694 326 707 C294 721 256 723 222 714 C196 707 171 691 151 671 C113 634 88 582 77 531 C42 362 39 187 36 14 C36 11 36 7 37 3 C46 -30 95 -25 96 9 L96 9 Z M109 330 C115 392 123 455 136 516 C146 563 169 613 208 641 C242 666 289 666 322 639 C346 620 361 590 372 561 C397 488 399 409 404 332 C368 333 145 329 109 330 L109 330 Z " />
<glyph glyph-name="&amp;#xe5;" unicode="&#xe5;" horiz-adv-x="516" d="M96 9 C98 96 99 183 104 270 C141 269 370 273 407 272 C409 241 418 53 421 22 C423 -5 453 -18 472 0 C477 6 481 15 481 23 C476 81 460 421 453 479 C445 536 429 595 398 644 C380 670 355 694 326 707 C294 721 256 723 222 714 C196 707 171 691 151 671 C113 634 88 582 77 531 C42 362 39 187 36 14 C36 11 36 7 37 3 C46 -30 95 -25 96 9 L96 9 Z M109 330 C115 392 123 455 136 516 C146 563 169 613 208 641 C242 666 289 666 322 639 C346 620 361 590 372 561 C397 488 399 409 404 332 C368 333 145 329 109 330 L109 330 Z " />
<glyph glyph-name="b" unicode="b" horiz-adv-x="479" d="M314 49 C360 72 402 108 429 152 C452 191 464 243 451 287 C445 312 429 334 411 353 C382 382 342 401 302 411 C380 459 435 561 393 642 C380 667 358 689 334 703 C308 719 279 728 249 733 C209 739 167 738 127 735 C118 735 83 731 76 728 C59 720 53 698 64 683 C56 469 47 254 48 40 C48 24 66 7 81 7 C160 5 243 14 314 49 L314 49 Z M124 675 C163 677 204 679 243 673 C296 666 351 629 347 576 C346 560 341 543 333 529 C318 499 292 475 263 458 C219 432 166 421 114 416 C117 502 120 588 124 675 L124 675 Z M112 346 C170 364 235 367 294 351 C329 342 365 320 385 289 C393 277 397 261 396 247 C395 219 384 191 367 168 C342 133 303 108 263 92 C214 74 160 66 108 66 C108 160 109 253 112 346 L112 346 Z " />
<glyph glyph-name="c" unicode="c" horiz-adv-x="464" d="M295 5 C325 15 352 36 372 60 C404 100 422 151 429 201 C430 208 434 244 434 251 C434 285 388 294 376 263 C374 257 374 251 374 245 C371 206 364 166 346 131 C332 102 309 74 279 63 C249 52 213 58 187 79 C158 102 135 135 120 169 C104 204 96 243 92 282 C83 367 100 455 129 535 C141 570 161 603 187 629 C203 645 224 659 247 662 C272 666 299 654 318 637 C348 608 366 563 367 521 C367 487 412 477 425 509 C430 522 422 566 418 580 C393 675 306 746 212 715 C189 708 168 694 151 677 C118 648 94 608 77 567 C33 460 17 334 41 221 C54 160 82 100 124 55 C146 31 175 13 205 4 C234 -5 267 -4 295 5 L295 5 Z " />
<glyph glyph-name="&amp;#xe7;" unicode="&#xe7;" horiz-adv-x="464" d="M295 5 C325 15 352 36 372 60 C404 100 422 151 429 201 C430 208 434 244 434 251 C434 285 388 294 376 263 C374 257 374 251 374 245 C371 206 364 166 346 131 C332 102 309 74 279 63 C249 52 213 58 187 79 C158 102 135 135 120 169 C104 204 96 243 92 282 C83 367 100 455 129 535 C141 570 161 603 187 629 C203 645 224 659 247 662 C272 666 299 654 318 637 C348 608 366 563 367 521 C367 487 412 477 425 509 C430 522 422 566 418 580 C393 675 306 746 212 715 C189 708 168 694 151 677 C118 648 94 608 77 567 C33 460 17 334 41 221 C54 160 82 100 124 55 C146 31 175 13 205 4 C234 -5 267 -4 295 5 L295 5 Z " />
<glyph glyph-name="d" unicode="d" horiz-adv-x="499" d="M156 11 C192 24 227 42 261 62 C336 108 402 179 439 259 C469 322 481 397 471 466 C468 492 462 517 452 541 C431 590 393 635 348 664 C285 706 205 727 129 725 C120 725 86 722 78 718 C69 714 57 697 55 688 C53 679 55 669 56 660 C57 645 54 566 54 552 C52 496 52 154 52 99 C52 75 54 52 54 29 C54 16 62 5 74 0 C90 -5 140 5 156 11 L156 11 Z M112 317 C112 342 113 497 113 522 C113 541 117 645 115 664 C182 669 253 653 310 618 C336 602 358 581 375 556 C399 524 410 482 414 442 C420 382 403 317 374 263 C338 195 276 139 209 102 C179 85 147 68 113 61 C111 94 112 284 112 317 L112 317 Z " />
<glyph glyph-name="e" unicode="e" horiz-adv-x="447" d="M263 1 C283 2 375 9 394 16 C430 27 416 80 380 74 C343 67 305 64 267 61 C240 60 214 58 188 62 C173 64 158 68 147 76 C136 85 128 98 123 111 C113 134 111 159 110 183 C105 236 106 289 106 342 C128 342 258 346 280 346 C320 346 319 406 278 406 C221 405 164 405 108 402 C110 491 115 579 119 668 C151 669 339 675 371 675 C377 675 406 674 412 675 C445 683 441 733 407 734 C301 736 195 726 89 728 C68 728 53 708 60 688 C61 684 59 665 59 660 C53 540 46 419 46 298 C46 236 46 174 59 114 C66 82 83 50 109 30 C125 17 145 9 165 5 C197 -2 230 0 263 1 L263 1 Z " />
<glyph glyph-name="&amp;#xe8;" unicode="&#xe8;" horiz-adv-x="447" d="M263 1 C283 2 375 9 394 16 C430 27 416 80 380 74 C343 67 305 64 267 61 C240 60 214 58 188 62 C173 64 158 68 147 76 C136 85 128 98 123 111 C113 134 111 159 110 183 C105 236 106 289 106 342 C128 342 258 346 280 346 C320 346 319 406 278 406 C221 405 164 405 108 402 C110 491 115 579 119 668 C151 669 339 675 371 675 C377 675 406 674 412 675 C445 683 441 733 407 734 C301 736 195 726 89 728 C68 728 53 708 60 688 C61 684 59 665 59 660 C53 540 46 419 46 298 C46 236 46 174 59 114 C66 82 83 50 109 30 C125 17 145 9 165 5 C197 -2 230 0 263 1 L263 1 Z " />
<glyph glyph-name="&amp;#xe9;" unicode="&#xe9;" horiz-adv-x="447" d="M263 1 C283 2 375 9 394 16 C430 27 416 80 380 74 C343 67 305 64 267 61 C240 60 214 58 188 62 C173 64 158 68 147 76 C136 85 128 98 123 111 C113 134 111 159 110 183 C105 236 106 289 106 342 C128 342 258 346 280 346 C320 346 319 406 278 406 C221 405 164 405 108 402 C110 491 115 579 119 668 C151 669 339 675 371 675 C377 675 406 674 412 675 C445 683 441 733 407 734 C301 736 195 726 89 728 C68 728 53 708 60 688 C61 684 59 665 59 660 C53 540 46 419 46 298 C46 236 46 174 59 114 C66 82 83 50 109 30 C125 17 145 9 165 5 C197 -2 230 0 263 1 L263 1 Z " />
<glyph glyph-name="&amp;#xea;" unicode="&#xea;" horiz-adv-x="447" d="M263 1 C283 2 375 9 394 16 C430 27 416 80 380 74 C343 67 305 64 267 61 C240 60 214 58 188 62 C173 64 158 68 147 76 C136 85 128 98 123 111 C113 134 111 159 110 183 C105 236 106 289 106 342 C128 342 258 346 280 346 C320 346 319 406 278 406 C221 405 164 405 108 402 C110 491 115 579 119 668 C151 669 339 675 371 675 C377 675 406 674 412 675 C445 683 441 733 407 734 C301 736 195 726 89 728 C68 728 53 708 60 688 C61 684 59 665 59 660 C53 540 46 419 46 298 C46 236 46 174 59 114 C66 82 83 50 109 30 C125 17 145 9 165 5 C197 -2 230 0 263 1 L263 1 Z " />
<glyph glyph-name="&amp;#xeb;" unicode="&#xeb;" horiz-adv-x="447" d="M263 1 C283 2 375 9 394 16 C430 27 416 80 380 74 C343 67 305 64 267 61 C240 60 214 58 188 62 C173 64 158 68 147 76 C136 85 128 98 123 111 C113 134 111 159 110 183 C105 236 106 289 106 342 C128 342 258 346 280 346 C320 346 319 406 278 406 C221 405 164 405 108 402 C110 491 115 579 119 668 C151 669 339 675 371 675 C377 675 406 674 412 675 C445 683 441 733 407 734 C301 736 195 726 89 728 C68 728 53 708 60 688 C61 684 59 665 59 660 C53 540 46 419 46 298 C46 236 46 174 59 114 C66 82 83 50 109 30 C125 17 145 9 165 5 C197 -2 230 0 263 1 L263 1 Z " />
<glyph glyph-name="f" unicode="f" horiz-adv-x="444" d="M110 32 C110 87 111 142 112 197 C114 248 113 299 113 350 C178 350 244 352 309 350 C340 349 352 391 324 406 C319 409 314 410 308 410 C243 411 178 410 113 410 C114 439 114 468 114 498 C115 538 116 579 116 620 C116 637 118 654 119 670 C216 670 312 669 409 669 C416 669 424 673 429 678 C448 698 434 729 407 729 C305 729 203 730 101 730 C89 730 79 725 74 715 C71 710 65 705 63 700 C58 688 56 636 56 623 C56 587 53 365 53 329 C54 229 50 129 50 30 C50 22 54 14 59 9 C79 -10 110 4 110 32 L110 32 Z " />
<glyph glyph-name="g" unicode="g" horiz-adv-x="469" d="M295 5 C325 15 352 36 372 60 C394 87 409 120 419 154 C427 187 443 295 431 327 C427 341 413 349 398 347 C396 347 386 347 384 347 C344 347 304 346 264 342 C255 341 246 340 237 340 C202 340 195 292 227 281 C238 278 283 283 294 284 C321 286 348 287 375 287 C375 256 372 225 366 194 C358 151 338 104 303 77 C269 50 222 51 187 79 C158 102 135 135 120 169 C104 204 96 243 92 282 C83 367 100 455 129 535 C152 598 207 675 273 661 C294 657 315 643 329 626 C353 596 366 560 367 521 C367 480 425 478 427 519 C427 536 425 553 421 570 C410 617 384 664 345 692 C330 703 313 713 295 718 C273 724 248 725 226 719 C199 713 174 698 154 680 C119 650 94 609 77 567 C33 460 17 334 41 221 C54 160 82 100 124 55 C146 31 175 13 205 4 C234 -5 267 -4 295 5 L295 5 Z " />
<glyph glyph-name="h" unicode="h" horiz-adv-x="537" d="M483 24 C483 106 483 615 483 696 C483 738 423 736 423 695 C423 593 423 491 423 389 C319 388 216 383 113 382 C113 402 114 530 114 551 C114 571 112 678 116 698 C117 704 115 710 112 715 C99 736 69 735 58 713 C53 701 54 649 54 636 C53 561 52 103 54 27 C54 -9 107 -14 113 23 C114 29 113 63 113 70 C112 154 113 238 113 322 C216 324 319 328 423 329 C423 291 423 60 423 22 C423 -19 483 -17 483 24 L483 24 Z " />
<glyph glyph-name="i" unicode="i" horiz-adv-x="166" d="M113 30 C113 251 113 471 113 691 C113 695 113 698 111 702 C101 734 53 726 53 692 C53 472 53 251 53 31 C53 -11 113 -11 113 30 L113 30 Z " />
<glyph glyph-name="&amp;#xec;" unicode="&#xec;" horiz-adv-x="166" d="M113 30 C113 251 113 471 113 691 C113 695 113 698 111 702 C101 734 53 726 53 692 C53 472 53 251 53 31 C53 -11 113 -11 113 30 L113 30 Z " />
<glyph glyph-name="&amp;#xed;" unicode="&#xed;" horiz-adv-x="166" d="M113 30 C113 251 113 471 113 691 C113 695 113 698 111 702 C101 734 53 726 53 692 C53 472 53 251 53 31 C53 -11 113 -11 113 30 L113 30 Z " />
<glyph glyph-name="&amp;#xee;" unicode="&#xee;" horiz-adv-x="166" d="M113 30 C113 251 113 471 113 691 C113 695 113 698 111 702 C101 734 53 726 53 692 C53 472 53 251 53 31 C53 -11 113 -11 113 30 L113 30 Z " />
<glyph glyph-name="&amp;#xef;" unicode="&#xef;" horiz-adv-x="166" d="M113 30 C113 251 113 471 113 691 C113 695 113 698 111 702 C101 734 53 726 53 692 C53 472 53 251 53 31 C53 -11 113 -11 113 30 L113 30 Z " />
<glyph glyph-name="j" unicode="j" horiz-adv-x="435" d="M230 -8 C250 -5 271 1 288 12 C310 27 327 49 340 73 C357 105 367 141 374 176 C389 246 386 320 387 392 C388 427 390 638 391 674 C391 678 393 683 393 688 C394 704 381 718 364 719 C275 722 186 720 97 720 C90 720 82 717 77 711 C58 691 72 660 100 660 C177 660 254 660 331 660 C330 617 327 353 327 309 C326 243 318 174 292 112 C282 89 265 64 240 56 C189 39 125 67 104 117 C78 179 83 256 106 320 C119 355 64 376 50 341 C33 297 25 248 26 201 C27 171 33 140 42 111 C65 35 150 -19 230 -8 L230 -8 Z " />
<glyph glyph-name="k" unicode="k" horiz-adv-x="443" d="M419 53 C333 144 243 232 150 317 C172 349 198 378 222 408 C275 473 323 540 373 607 C378 615 412 659 417 667 C436 698 393 729 368 702 C365 698 349 676 346 671 C295 603 245 533 192 466 C182 453 120 377 110 363 C110 377 110 462 110 476 C109 546 107 617 111 688 C113 722 65 732 53 700 C52 697 52 693 51 690 C47 640 49 371 51 322 C52 258 56 194 60 129 C62 112 63 40 71 23 C85 -7 131 6 127 40 C124 69 114 241 112 270 C204 186 293 100 378 9 C383 4 391 1 398 1 C426 1 438 33 419 53 L419 53 Z " />
<glyph glyph-name="l" unicode="l" horiz-adv-x="345" d="M300 7 C306 7 313 6 319 9 C345 18 345 56 319 65 C313 67 305 67 299 67 C240 66 180 64 122 66 C111 153 108 607 111 695 C113 735 54 737 51 696 C47 634 53 283 55 220 C56 187 55 62 70 32 C75 22 86 13 97 10 C127 2 268 6 300 7 L300 7 Z " />
<glyph glyph-name="m" unicode="m" horiz-adv-x="620" d="M120 31 C110 209 110 388 115 566 C167 451 224 338 269 220 C274 205 282 187 296 180 C314 171 335 181 344 200 C364 243 488 512 508 556 C504 383 504 211 507 38 C507 38 506 35 506 35 C503 7 536 -10 557 9 C564 16 567 27 567 37 C565 181 563 326 566 470 C567 499 571 667 570 696 C568 727 525 735 512 706 C487 653 336 326 312 274 C252 420 179 561 119 707 C117 711 115 715 112 719 C96 743 61 734 57 706 C56 699 57 662 57 655 C56 531 49 406 52 282 C52 250 58 60 60 28 C62 -13 122 -11 120 31 L120 31 Z " />
<glyph glyph-name="n" unicode="n" horiz-adv-x="584" d="M527 25 C527 247 534 469 534 690 C534 724 485 730 475 697 C474 694 474 690 474 686 C474 495 468 304 467 112 C461 122 426 179 420 188 C308 356 208 531 110 708 C93 738 50 726 52 692 C53 679 55 666 55 653 C56 560 55 468 53 376 C51 263 57 150 51 37 C49 -5 109 -9 111 33 C116 143 112 253 113 364 C114 435 115 505 115 576 C195 434 279 294 368 157 C399 110 426 62 459 16 C465 8 471 0 480 -4 C503 -13 527 1 527 25 L527 25 Z " />
<glyph glyph-name="&amp;#xf1;" unicode="&#xf1;" horiz-adv-x="584" d="M527 25 C527 247 534 469 534 690 C534 724 485 730 475 697 C474 694 474 690 474 686 C474 495 468 304 467 112 C461 122 426 179 420 188 C308 356 208 531 110 708 C93 738 50 726 52 692 C53 679 55 666 55 653 C56 560 55 468 53 376 C51 263 57 150 51 37 C49 -5 109 -9 111 33 C116 143 112 253 113 364 C114 435 115 505 115 576 C195 434 279 294 368 157 C399 110 426 62 459 16 C465 8 471 0 480 -4 C503 -13 527 1 527 25 L527 25 Z " />
<glyph glyph-name="o" unicode="o" horiz-adv-x="526" d="M328 12 C366 30 397 64 418 100 C468 185 491 288 495 388 C497 419 497 451 492 482 C484 537 461 592 429 637 C402 675 359 705 313 716 C288 722 259 723 234 715 C205 706 180 688 159 667 C120 631 90 584 70 535 C32 444 20 337 36 239 C48 169 84 98 135 49 C160 25 192 7 225 0 C259 -8 297 -3 328 12 L328 12 Z M247 57 C216 61 186 80 165 104 C150 121 137 139 126 159 C106 197 94 240 90 283 C85 347 93 414 112 476 C126 522 149 567 181 604 C200 627 225 648 253 658 C269 664 310 656 325 649 C359 632 385 600 403 566 C421 531 433 491 435 451 C441 350 422 244 378 153 C363 122 342 92 314 73 C295 60 270 54 247 57 L247 57 Z " />
<glyph glyph-name="&amp;#xf2;" unicode="&#xf2;" horiz-adv-x="526" d="M328 12 C366 30 397 64 418 100 C468 185 491 288 495 388 C497 419 497 451 492 482 C484 537 461 592 429 637 C402 675 359 705 313 716 C288 722 259 723 234 715 C205 706 180 688 159 667 C120 631 90 584 70 535 C32 444 20 337 36 239 C48 169 84 98 135 49 C160 25 192 7 225 0 C259 -8 297 -3 328 12 L328 12 Z M247 57 C216 61 186 80 165 104 C150 121 137 139 126 159 C106 197 94 240 90 283 C85 347 93 414 112 476 C126 522 149 567 181 604 C200 627 225 648 253 658 C269 664 310 656 325 649 C359 632 385 600 403 566 C421 531 433 491 435 451 C441 350 422 244 378 153 C363 122 342 92 314 73 C295 60 270 54 247 57 L247 57 Z " />
<glyph glyph-name="&amp;#xf3;" unicode="&#xf3;" horiz-adv-x="526" d="M328 12 C366 30 397 64 418 100 C468 185 491 288 495 388 C497 419 497 451 492 482 C484 537 461 592 429 637 C402 675 359 705 313 716 C288 722 259 723 234 715 C205 706 180 688 159 667 C120 631 90 584 70 535 C32 444 20 337 36 239 C48 169 84 98 135 49 C160 25 192 7 225 0 C259 -8 297 -3 328 12 L328 12 Z M247 57 C216 61 186 80 165 104 C150 121 137 139 126 159 C106 197 94 240 90 283 C85 347 93 414 112 476 C126 522 149 567 181 604 C200 627 225 648 253 658 C269 664 310 656 325 649 C359 632 385 600 403 566 C421 531 433 491 435 451 C441 350 422 244 378 153 C363 122 342 92 314 73 C295 60 270 54 247 57 L247 57 Z " />
<glyph glyph-name="&amp;#xf4;" unicode="&#xf4;" horiz-adv-x="526" d="M328 12 C366 30 397 64 418 100 C468 185 491 288 495 388 C497 419 497 451 492 482 C484 537 461 592 429 637 C402 675 359 705 313 716 C288 722 259 723 234 715 C205 706 180 688 159 667 C120 631 90 584 70 535 C32 444 20 337 36 239 C48 169 84 98 135 49 C160 25 192 7 225 0 C259 -8 297 -3 328 12 L328 12 Z M247 57 C216 61 186 80 165 104 C150 121 137 139 126 159 C106 197 94 240 90 283 C85 347 93 414 112 476 C126 522 149 567 181 604 C200 627 225 648 253 658 C269 664 310 656 325 649 C359 632 385 600 403 566 C421 531 433 491 435 451 C441 350 422 244 378 153 C363 122 342 92 314 73 C295 60 270 54 247 57 L247 57 Z " />
<glyph glyph-name="&amp;#xf5;" unicode="&#xf5;" horiz-adv-x="526" d="M328 12 C366 30 397 64 418 100 C468 185 491 288 495 388 C497 419 497 451 492 482 C484 537 461 592 429 637 C402 675 359 705 313 716 C288 722 259 723 234 715 C205 706 180 688 159 667 C120 631 90 584 70 535 C32 444 20 337 36 239 C48 169 84 98 135 49 C160 25 192 7 225 0 C259 -8 297 -3 328 12 L328 12 Z M247 57 C216 61 186 80 165 104 C150 121 137 139 126 159 C106 197 94 240 90 283 C85 347 93 414 112 476 C126 522 149 567 181 604 C200 627 225 648 253 658 C269 664 310 656 325 649 C359 632 385 600 403 566 C421 531 433 491 435 451 C441 350 422 244 378 153 C363 122 342 92 314 73 C295 60 270 54 247 57 L247 57 Z " />
<glyph glyph-name="&amp;#xf6;" unicode="&#xf6;" horiz-adv-x="526" d="M328 12 C366 30 397 64 418 100 C468 185 491 288 495 388 C497 419 497 451 492 482 C484 537 461 592 429 637 C402 675 359 705 313 716 C288 722 259 723 234 715 C205 706 180 688 159 667 C120 631 90 584 70 535 C32 444 20 337 36 239 C48 169 84 98 135 49 C160 25 192 7 225 0 C259 -8 297 -3 328 12 L328 12 Z M247 57 C216 61 186 80 165 104 C150 121 137 139 126 159 C106 197 94 240 90 283 C85 347 93 414 112 476 C126 522 149 567 181 604 C200 627 225 648 253 658 C269 664 310 656 325 649 C359 632 385 600 403 566 C421 531 433 491 435 451 C441 350 422 244 378 153 C363 122 342 92 314 73 C295 60 270 54 247 57 L247 57 Z " />
<glyph glyph-name="&amp;#xf8;" unicode="&#xf8;" horiz-adv-x="526" d="M328 12 C366 30 397 64 418 100 C468 185 491 288 495 388 C497 419 497 451 492 482 C484 537 461 592 429 637 C402 675 359 705 313 716 C288 722 259 723 234 715 C205 706 180 688 159 667 C120 631 90 584 70 535 C32 444 20 337 36 239 C48 169 84 98 135 49 C160 25 192 7 225 0 C259 -8 297 -3 328 12 L328 12 Z M247 57 C216 61 186 80 165 104 C150 121 137 139 126 159 C106 197 94 240 90 283 C85 347 93 414 112 476 C126 522 149 567 181 604 C200 627 225 648 253 658 C269 664 310 656 325 649 C359 632 385 600 403 566 C421 531 433 491 435 451 C441 350 422 244 378 153 C363 122 342 92 314 73 C295 60 270 54 247 57 L247 57 Z " />
<glyph glyph-name="p" unicode="p" horiz-adv-x="429" d="M125 33 C125 56 119 199 119 222 C188 235 256 268 309 315 C350 353 384 403 400 457 C411 497 414 541 403 581 C398 599 389 617 377 633 C355 663 322 687 288 700 C235 720 177 725 122 725 C116 725 85 726 79 725 C64 723 49 708 49 692 C44 470 59 249 65 28 C66 19 71 10 78 5 C99 -10 126 7 125 33 L125 33 Z M108 665 C161 665 217 664 266 644 C288 635 310 621 325 602 C347 575 355 535 349 500 C341 456 319 414 290 381 C245 331 181 297 117 283 C112 410 107 537 108 665 L108 665 Z " />
<glyph glyph-name="q" unicode="q" horiz-adv-x="526" d="M466 -119 C462 -111 438 -74 433 -67 C410 -33 388 3 367 38 C387 56 404 77 418 100 C468 185 491 288 495 388 C497 419 497 451 492 482 C484 537 461 592 429 637 C402 675 359 705 313 716 C288 722 259 723 234 715 C205 706 180 688 159 667 C120 631 90 584 70 535 C32 444 20 337 36 239 C48 169 84 98 135 49 C160 25 192 7 225 0 C255 -7 287 -4 316 7 C345 -42 377 -90 408 -138 C411 -143 413 -149 417 -153 C441 -177 480 -150 466 -119 L466 -119 Z M247 57 C216 61 186 80 165 104 C150 121 137 139 126 159 C106 197 94 240 90 283 C85 347 93 414 112 476 C126 522 149 567 181 604 C200 627 225 648 253 658 C269 664 310 656 325 649 C359 632 385 600 403 566 C421 531 433 491 435 451 C441 350 422 244 378 153 C367 130 353 108 336 90 C331 98 304 143 300 150 C298 153 298 157 296 160 C279 189 234 172 241 139 C242 132 245 125 249 119 C261 99 272 79 284 60 C272 56 259 55 247 57 L247 57 Z " />
<glyph glyph-name="r" unicode="r" horiz-adv-x="465" d="M435 53 C340 135 247 220 150 299 C202 317 253 337 299 366 C338 390 374 422 398 461 C414 488 423 519 424 550 C426 583 415 619 394 644 C379 664 357 679 334 689 C298 706 258 715 219 719 C173 724 127 725 81 725 C60 725 45 704 53 684 C55 679 53 657 53 652 C53 620 55 588 55 556 C55 486 52 416 52 346 C52 306 55 70 54 30 C53 -7 111 -10 113 27 C115 56 112 224 112 253 C209 174 300 90 395 8 C426 -19 466 25 435 53 L435 53 Z M113 443 C113 480 115 517 115 554 C115 591 113 628 114 665 C162 665 211 662 258 652 C289 645 322 634 344 611 C376 578 365 515 337 478 C315 449 285 426 253 408 C208 383 160 365 112 350 C112 381 112 412 113 443 L113 443 Z " />
<glyph glyph-name="s" unicode="s" horiz-adv-x="426" d="M276 7 C324 19 371 57 390 103 C407 147 396 204 369 243 C340 286 294 316 250 343 C208 369 162 394 131 433 C101 470 82 525 92 572 C99 604 118 636 146 652 C182 673 249 659 281 633 C308 610 320 570 321 534 C321 532 321 522 321 520 C326 484 379 485 381 522 C381 524 381 538 381 541 C379 581 367 623 342 655 C319 685 287 705 250 714 C218 723 183 726 152 718 C125 712 101 696 82 677 C55 648 37 609 31 570 C24 528 35 483 53 445 C74 401 109 362 150 335 C197 303 250 277 293 239 C310 224 326 205 333 183 C337 170 340 156 338 143 C336 113 310 86 284 74 C252 59 213 57 180 67 C163 72 146 80 133 91 C121 102 111 116 106 132 C102 143 103 156 96 165 C80 185 48 177 43 152 C41 139 46 124 50 111 C60 75 91 44 124 25 C169 1 226 -5 276 7 L276 7 Z " />
<glyph glyph-name="t" unicode="t" horiz-adv-x="417" d="M235 29 C237 69 232 300 231 341 C230 452 229 563 234 674 C279 675 325 676 371 676 C377 675 383 675 389 677 C422 686 416 734 381 735 C351 736 173 732 143 731 C127 730 46 728 31 725 C-6 717 2 662 39 666 C56 668 156 671 174 672 C166 486 172 300 176 114 C176 105 176 51 176 42 C175 35 174 28 176 22 C185 -11 233 -5 235 29 L235 29 Z " />
<glyph glyph-name="u" unicode="u" horiz-adv-x="516" d="M304 9 C332 15 358 33 378 53 C406 80 426 116 439 152 C454 199 463 249 468 298 C481 417 473 537 470 656 C470 660 470 684 470 688 C467 722 420 726 411 694 C409 689 410 684 410 678 C411 599 415 520 416 441 C416 360 410 278 390 200 C383 168 369 137 350 111 C338 95 322 80 303 72 C272 58 233 59 202 73 C183 82 168 98 157 114 C137 142 125 176 117 209 C90 315 100 428 107 538 C110 584 113 630 121 675 C122 681 124 687 124 692 C124 723 84 734 68 708 C60 694 55 635 54 619 C47 549 43 479 41 409 C37 314 44 213 82 125 C100 82 133 41 175 20 C213 0 262 -2 304 9 L304 9 Z " />
<glyph glyph-name="&amp;#xf9;" unicode="&#xf9;" horiz-adv-x="516" d="M304 9 C332 15 358 33 378 53 C406 80 426 116 439 152 C454 199 463 249 468 298 C481 417 473 537 470 656 C470 660 470 684 470 688 C467 722 420 726 411 694 C409 689 410 684 410 678 C411 599 415 520 416 441 C416 360 410 278 390 200 C383 168 369 137 350 111 C338 95 322 80 303 72 C272 58 233 59 202 73 C183 82 168 98 157 114 C137 142 125 176 117 209 C90 315 100 428 107 538 C110 584 113 630 121 675 C122 681 124 687 124 692 C124 723 84 734 68 708 C60 694 55 635 54 619 C47 549 43 479 41 409 C37 314 44 213 82 125 C100 82 133 41 175 20 C213 0 262 -2 304 9 L304 9 Z " />
<glyph glyph-name="&amp;#xfa;" unicode="&#xfa;" horiz-adv-x="516" d="M304 9 C332 15 358 33 378 53 C406 80 426 116 439 152 C454 199 463 249 468 298 C481 417 473 537 470 656 C470 660 470 684 470 688 C467 722 420 726 411 694 C409 689 410 684 410 678 C411 599 415 520 416 441 C416 360 410 278 390 200 C383 168 369 137 350 111 C338 95 322 80 303 72 C272 58 233 59 202 73 C183 82 168 98 157 114 C137 142 125 176 117 209 C90 315 100 428 107 538 C110 584 113 630 121 675 C122 681 124 687 124 692 C124 723 84 734 68 708 C60 694 55 635 54 619 C47 549 43 479 41 409 C37 314 44 213 82 125 C100 82 133 41 175 20 C213 0 262 -2 304 9 L304 9 Z " />
<glyph glyph-name="&amp;#xfb;" unicode="&#xfb;" horiz-adv-x="516" d="M304 9 C332 15 358 33 378 53 C406 80 426 116 439 152 C454 199 463 249 468 298 C481 417 473 537 470 656 C470 660 470 684 470 688 C467 722 420 726 411 694 C409 689 410 684 410 678 C411 599 415 520 416 441 C416 360 410 278 390 200 C383 168 369 137 350 111 C338 95 322 80 303 72 C272 58 233 59 202 73 C183 82 168 98 157 114 C137 142 125 176 117 209 C90 315 100 428 107 538 C110 584 113 630 121 675 C122 681 124 687 124 692 C124 723 84 734 68 708 C60 694 55 635 54 619 C47 549 43 479 41 409 C37 314 44 213 82 125 C100 82 133 41 175 20 C213 0 262 -2 304 9 L304 9 Z " />
<glyph glyph-name="&amp;#xfc;" unicode="&#xfc;" horiz-adv-x="516" d="M304 9 C332 15 358 33 378 53 C406 80 426 116 439 152 C454 199 463 249 468 298 C481 417 473 537 470 656 C470 660 470 684 470 688 C467 722 420 726 411 694 C409 689 410 684 410 678 C411 599 415 520 416 441 C416 360 410 278 390 200 C383 168 369 137 350 111 C338 95 322 80 303 72 C272 58 233 59 202 73 C183 82 168 98 157 114 C137 142 125 176 117 209 C90 315 100 428 107 538 C110 584 113 630 121 675 C122 681 124 687 124 692 C124 723 84 734 68 708 C60 694 55 635 54 619 C47 549 43 479 41 409 C37 314 44 213 82 125 C100 82 133 41 175 20 C213 0 262 -2 304 9 L304 9 Z " />
<glyph glyph-name="v" unicode="v" horiz-adv-x="507" d="M251 4 C274 15 285 42 295 64 C324 123 342 186 360 249 C365 266 398 366 404 383 C412 409 460 568 468 594 C471 604 485 652 487 662 C488 674 494 685 492 697 C487 730 440 731 433 698 C428 672 421 646 413 621 C385 518 352 417 319 316 C293 234 272 149 232 73 C207 139 192 208 173 276 C157 333 86 651 76 709 C71 743 22 741 17 708 C17 704 17 700 18 696 C27 644 92 351 105 300 C114 263 165 77 180 43 C193 13 222 -9 251 4 L251 4 Z " />
<glyph glyph-name="w" unicode="w" horiz-adv-x="753" d="M547 11 C558 19 565 32 573 45 C603 97 622 155 638 213 C649 253 660 293 669 333 C697 453 714 575 732 696 C737 733 683 744 673 708 C672 705 670 687 669 683 C647 534 625 384 584 240 C568 184 552 128 523 78 C497 123 484 176 471 226 C448 320 423 414 408 509 C407 522 400 579 395 590 C387 610 362 615 347 601 C335 589 321 535 317 519 C315 510 301 456 299 448 C292 421 245 255 238 228 C225 179 217 128 202 79 C184 113 173 151 163 188 C147 244 136 302 125 360 C103 473 89 589 88 705 C88 711 85 717 81 721 C64 742 28 732 28 704 C28 568 50 432 76 298 C89 233 125 52 179 14 C195 3 214 2 229 13 C240 20 247 32 252 44 C263 67 289 185 295 209 C302 238 352 412 359 441 C375 360 396 280 416 200 C429 150 444 99 468 53 C485 20 517 -10 547 11 L547 11 Z " />
<glyph glyph-name="x" unicode="x" horiz-adv-x="478" d="M448 43 C388 144 329 246 272 349 C297 397 324 444 351 492 C364 515 443 652 457 674 C477 706 436 738 410 712 C407 708 405 704 403 700 C397 689 360 628 354 618 C314 549 275 480 237 410 C217 446 92 669 71 704 C55 734 9 714 17 681 C18 678 20 674 22 671 C83 563 143 455 203 347 C182 307 64 82 39 44 C19 12 63 -20 88 8 C92 13 105 37 108 42 C124 72 222 256 238 285 C291 193 344 101 398 10 C402 4 410 -1 417 -3 C444 -8 462 20 448 43 L448 43 Z " />
<glyph glyph-name="y" unicode="y" horiz-adv-x="517" d="M310 15 C314 20 317 27 316 33 C314 57 311 193 311 217 C311 254 311 291 307 327 C315 341 360 427 368 441 C412 523 457 604 504 684 C523 717 472 747 453 715 C389 609 330 500 272 390 C205 496 130 597 68 706 C66 710 63 714 60 717 C35 741 -4 711 13 681 C81 562 163 452 235 335 C237 333 244 321 245 319 C246 318 248 317 248 315 C252 281 254 85 255 51 C256 47 256 31 257 28 C261 2 295 -7 310 15 L310 15 Z " />
<glyph glyph-name="&amp;#xfd;" unicode="&#xfd;" horiz-adv-x="517" d="M310 15 C314 20 317 27 316 33 C314 57 311 193 311 217 C311 254 311 291 307 327 C315 341 360 427 368 441 C412 523 457 604 504 684 C523 717 472 747 453 715 C389 609 330 500 272 390 C205 496 130 597 68 706 C66 710 63 714 60 717 C35 741 -4 711 13 681 C81 562 163 452 235 335 C237 333 244 321 245 319 C246 318 248 317 248 315 C252 281 254 85 255 51 C256 47 256 31 257 28 C261 2 295 -7 310 15 L310 15 Z " />
<glyph glyph-name="&amp;#xff;" unicode="&#xff;" horiz-adv-x="517" d="M310 15 C314 20 317 27 316 33 C314 57 311 193 311 217 C311 254 311 291 307 327 C315 341 360 427 368 441 C412 523 457 604 504 684 C523 717 472 747 453 715 C389 609 330 500 272 390 C205 496 130 597 68 706 C66 710 63 714 60 717 C35 741 -4 711 13 681 C81 562 163 452 235 335 C237 333 244 321 245 319 C246 318 248 317 248 315 C252 281 254 85 255 51 C256 47 256 31 257 28 C261 2 295 -7 310 15 L310 15 Z " />
<glyph glyph-name="z" unicode="z" horiz-adv-x="480" d="M458 46 C452 52 444 56 435 56 C322 57 208 57 95 57 C153 145 205 236 257 328 C322 442 387 557 452 672 C465 695 455 724 428 726 C387 729 151 726 109 726 C68 726 67 666 108 666 C199 666 289 667 380 667 C349 612 163 283 132 229 C102 179 71 130 39 82 C30 69 21 57 14 44 C1 21 21 -2 46 -2 C175 -2 304 -3 433 -4 C460 -4 476 27 458 46 L458 46 Z " />
<glyph glyph-name="braceleft" unicode="&#x7b;" horiz-adv-x="304" d="M250 -16 C285 -16 291 34 257 43 C248 45 239 43 231 43 C216 43 200 45 188 53 C172 64 161 81 154 99 C133 154 141 216 140 275 C139 302 133 331 117 352 C132 366 146 383 156 401 C166 423 170 447 172 471 C175 522 168 574 178 624 C182 643 200 664 220 667 C222 667 231 665 233 665 C273 658 284 715 245 724 C238 725 215 727 209 726 C191 721 173 713 158 701 C143 689 132 672 125 654 C117 633 115 609 114 585 C112 553 114 520 113 487 C112 470 111 453 106 437 C100 418 85 402 69 391 C60 384 48 381 42 372 C31 359 33 340 46 330 C51 325 58 323 64 319 C72 315 76 306 77 297 C82 274 80 249 79 225 C77 171 81 115 103 66 C116 36 141 9 170 -5 C194 -17 223 -17 250 -16 L250 -16 Z " />
<glyph glyph-name="verticalbar" unicode="&#x7c;" horiz-adv-x="196" d="M111 -130 C113 -104 113 45 114 72 C115 102 122 284 124 315 C131 448 143 582 145 716 C145 722 146 755 145 762 C141 799 87 795 86 757 C82 572 67 386 59 201 C54 95 54 -10 51 -116 C51 -118 51 -128 51 -129 C54 -166 107 -167 111 -130 L111 -130 Z " />
<glyph glyph-name="braceright" unicode="&#x7d;" horiz-adv-x="295" d="M148 8 C170 29 186 57 194 87 C201 114 201 144 199 173 C197 206 196 240 200 273 C202 289 210 306 221 318 C225 321 251 340 254 344 C266 358 265 378 252 389 C244 397 232 399 222 405 C207 412 194 424 187 439 C177 458 177 481 178 503 C181 543 196 584 189 624 C185 652 170 680 150 700 C138 713 123 724 106 728 C88 733 67 739 50 732 C19 720 28 674 61 674 C74 675 87 674 98 667 C113 656 123 639 129 621 C137 594 126 564 122 536 C117 500 114 462 127 428 C136 401 156 377 180 360 C165 346 153 327 146 307 C136 277 137 245 137 214 C138 184 142 155 140 126 C139 108 132 89 123 73 C116 60 106 49 94 43 C88 40 75 36 70 39 C33 56 10 -2 47 -18 C56 -22 66 -22 75 -22 C101 -22 129 -10 148 8 L148 8 Z " />
<glyph glyph-name="asciitilde" unicode="&#x7e;" horiz-adv-x="413" d="M320 234 C343 247 365 265 379 287 C386 298 393 312 390 325 C385 350 353 357 337 337 C333 331 331 323 326 316 C307 291 269 268 241 284 C222 296 209 317 192 332 C177 346 156 356 135 358 C99 360 61 337 41 308 C34 298 25 287 23 275 C18 242 63 227 79 256 C86 268 93 280 104 287 C112 293 123 299 133 298 C142 297 149 291 155 285 C165 274 174 262 185 252 C200 239 218 226 238 222 C265 216 296 221 320 234 L320 234 Z " />
<glyph glyph-name="nonbreakingspace" unicode="&#xa0;" horiz-adv-x="250" />
<glyph glyph-name="cent" unicode="&#xa2;" horiz-adv-x="408" d="M244 93 C243 99 238 136 237 142 C257 146 277 155 294 166 C313 179 365 232 374 253 C386 284 344 310 323 283 C304 258 284 231 258 214 C231 196 172 189 145 206 C119 223 102 256 98 288 C94 318 100 350 109 380 C121 422 145 465 182 490 C198 502 220 509 240 506 C255 503 269 491 276 477 C278 472 277 466 278 461 C286 424 340 431 338 468 C337 485 331 502 322 516 C306 541 280 558 251 565 C251 574 251 583 251 592 C251 596 254 613 254 617 C255 654 200 658 195 621 C192 601 190 581 191 560 C162 551 136 534 115 512 C71 464 43 396 38 330 C36 302 37 272 46 245 C58 209 83 175 115 154 C134 143 156 138 177 137 C178 129 182 91 184 84 C194 48 246 56 244 93 L244 93 Z " />
<glyph glyph-name="sterling" unicode="&#xa3;" horiz-adv-x="468" d="M343 1 C362 9 379 22 392 37 C413 61 428 91 440 121 C442 127 444 133 444 140 C446 177 392 185 385 148 C381 129 372 111 361 95 C350 79 336 63 318 55 C311 52 302 52 294 52 C269 52 246 61 223 69 C202 77 180 83 157 85 C172 117 183 151 189 186 C196 228 195 273 186 315 C208 316 230 318 252 316 C279 314 295 349 274 368 C268 374 258 377 249 377 C222 377 196 376 170 375 C168 382 155 423 152 430 C139 474 128 523 139 569 C145 592 157 615 175 631 C186 641 201 648 215 651 C232 654 250 650 266 643 C273 640 279 637 285 632 C289 629 297 616 298 611 C299 608 298 605 299 602 C306 575 343 571 355 596 C359 604 359 614 358 623 C355 635 336 667 327 675 C298 699 258 714 221 712 C189 710 156 695 133 674 C107 651 89 617 81 584 C73 551 75 517 79 484 C84 447 95 411 107 375 C104 375 88 376 85 376 C79 377 72 380 66 379 C38 376 29 340 52 324 C64 316 111 315 124 314 C134 275 137 232 129 192 C121 146 100 101 76 60 C74 57 71 53 70 50 C58 24 84 -2 110 10 C115 12 119 17 125 20 C134 26 147 27 158 25 C187 21 213 8 241 0 C274 -10 312 -12 343 1 L343 1 Z " />
<glyph glyph-name="currency" unicode="&#xa4;" horiz-adv-x="388" d="M79 161 C90 167 120 202 127 213 C152 195 182 187 212 190 C232 192 251 199 268 209 C277 198 285 187 294 177 C320 149 365 183 342 214 C339 218 317 244 314 249 C332 272 345 300 348 329 C352 363 335 397 316 425 C318 428 328 443 330 446 C337 455 348 463 350 475 C356 502 324 521 302 504 C296 499 276 474 272 467 C260 474 245 476 231 478 C198 483 161 471 134 452 C132 451 130 453 129 454 C123 460 102 482 99 489 C98 492 98 494 97 496 C86 522 49 519 41 492 C33 466 70 427 90 409 C81 395 75 379 72 363 C64 329 71 291 87 259 C80 252 75 243 69 235 C61 225 50 217 42 207 C20 182 49 145 79 161 L79 161 Z M134 363 C144 390 172 410 199 418 C212 421 225 419 238 416 C243 410 251 405 259 403 C270 386 285 368 288 347 C293 311 259 268 225 254 C163 229 111 300 134 363 L134 363 Z " />
<glyph glyph-name="yen" unicode="&#xa5;" horiz-adv-x="465" d="M268 20 C271 29 268 69 268 79 C267 100 267 121 266 142 C276 142 322 141 332 143 C365 153 359 201 324 202 C304 203 284 203 264 202 C263 223 263 243 263 264 C286 264 309 264 332 262 C369 260 376 315 339 322 C329 324 279 324 269 324 C277 335 284 348 290 360 C313 404 334 449 354 493 C377 543 400 592 420 643 C423 651 438 685 437 694 C437 733 382 737 376 698 C372 672 322 565 310 542 C285 487 262 431 232 378 C212 418 110 650 93 692 C91 696 92 701 90 705 C81 729 49 732 36 709 C30 698 32 682 37 670 C69 591 105 514 140 437 C157 398 172 357 196 323 C188 323 137 321 129 320 C120 320 110 319 102 314 C76 298 88 258 119 259 C120 259 129 260 131 260 C140 261 194 263 203 263 C203 242 203 221 204 200 C191 200 130 198 117 195 C81 186 91 132 128 136 C154 139 180 139 207 140 C207 125 211 48 209 33 C205 -4 257 -15 268 20 L268 20 Z " />
<glyph glyph-name="brokenbar" unicode="&#xa6;" horiz-adv-x="181" d="M112 399 C112 421 115 556 115 578 C116 592 121 677 121 691 C122 701 123 761 125 771 C126 778 129 785 128 792 C128 823 87 833 72 806 C61 786 62 702 61 679 C56 586 53 492 52 399 C51 358 111 357 112 399 L112 399 Z M131 -135 C131 -114 130 -93 130 -72 C127 14 131 101 128 187 C128 199 126 251 122 262 C113 292 71 290 64 260 C62 252 67 213 67 204 C71 136 69 67 69 -1 C69 -46 70 -91 71 -136 C73 -177 133 -177 131 -135 L131 -135 Z " />
<glyph glyph-name="section" unicode="&#xa7;" horiz-adv-x="428" d="M251 17 C268 22 285 29 299 41 C313 52 324 68 332 84 C350 125 353 175 337 216 C331 231 323 246 315 259 C338 281 358 310 361 341 C363 376 350 415 327 441 C301 469 267 488 234 507 C211 520 186 534 169 555 C155 572 147 593 146 615 C143 649 175 673 209 675 C244 678 281 666 309 645 C319 638 326 628 332 617 C343 598 370 595 383 613 C390 623 391 637 384 647 C373 664 361 682 345 694 C303 723 247 742 197 734 C164 729 130 713 109 687 C94 669 87 645 86 622 C84 584 101 544 125 515 C107 500 90 481 84 458 C76 423 82 388 102 360 C136 312 194 288 241 253 C265 235 281 205 286 176 C291 149 286 119 270 97 C265 89 256 83 247 79 C230 72 211 68 193 69 C170 71 147 83 130 98 C115 113 102 132 99 153 C92 189 39 184 39 147 C39 133 46 119 52 106 C76 57 122 21 174 11 C199 7 226 10 251 17 L251 17 Z M178 367 C166 376 154 387 148 400 C140 414 138 431 143 446 C147 455 155 462 163 468 C166 471 171 475 174 473 C209 450 251 434 280 403 C294 388 303 365 301 344 C299 331 289 319 280 309 C278 308 271 305 270 306 C240 328 207 345 178 367 L178 367 Z " />
<glyph glyph-name="copyright" unicode="&#xa9;" horiz-adv-x="700" d="M661 289 C675 509 463 673 254 605 C156 573 80 494 51 395 C2 224 107 46 280 6 C467 -38 649 97 661 289 L661 289 Z M129 190 C107 232 97 278 100 326 C104 390 133 451 181 495 C215 526 260 548 306 557 C346 564 390 560 429 548 C479 533 523 498 554 457 C579 424 595 383 600 342 C607 283 594 223 563 174 C535 131 491 96 444 76 C416 64 384 59 353 58 C262 55 173 108 129 190 L129 190 Z M363 169 C371 171 402 184 408 189 C438 211 409 256 376 239 C367 234 357 229 346 226 C320 221 288 237 279 262 C272 283 277 307 285 328 C298 361 338 397 374 391 C379 390 390 387 392 381 C395 373 401 365 409 361 C434 348 461 374 450 399 C449 402 448 404 447 407 C443 417 435 425 426 432 C366 474 289 443 247 383 C217 342 206 278 227 232 C248 184 313 156 363 169 L363 169 Z " />
<glyph glyph-name="guillemotleft" unicode="&#xab;" horiz-adv-x="450" d="M228 133 C223 142 186 174 178 181 C146 209 117 239 93 273 C125 301 156 328 186 357 C195 366 235 402 241 413 C256 443 218 472 194 449 C192 447 181 435 179 433 C170 424 115 372 106 363 C97 355 46 313 38 304 C32 297 28 288 28 279 C27 249 80 191 102 170 C112 159 172 104 183 94 C209 73 245 104 228 133 L228 133 Z M404 127 C357 171 307 212 266 261 C277 273 289 284 301 295 C339 330 376 366 411 403 C438 430 395 472 369 445 C338 414 308 384 276 354 C270 349 237 318 232 312 C223 303 214 293 208 282 C203 271 201 257 205 246 C211 228 226 215 239 201 C276 162 317 126 355 89 C360 85 365 80 371 78 C402 64 428 104 404 127 L404 127 Z " />
<glyph glyph-name="logicalnot" unicode="&#xac;" horiz-adv-x="367" d="M336 262 C337 265 338 269 338 273 C338 289 341 364 338 379 C334 396 324 407 308 412 C292 417 274 414 257 413 C208 409 159 404 111 405 C100 405 54 408 44 405 C14 396 15 354 45 347 C54 345 99 345 108 345 C166 345 223 351 280 354 C279 326 278 298 278 270 C277 236 326 229 336 262 L336 262 Z " />
<glyph glyph-name="softhyphen" unicode="&#xad;" horiz-adv-x="0" />
<glyph glyph-name="registered" unicode="&#xae;" horiz-adv-x="700" d="M661 289 C675 509 463 673 254 605 C156 573 80 494 51 395 C2 224 107 46 280 6 C467 -38 649 97 661 289 L661 289 Z M129 190 C107 232 97 278 100 326 C104 390 133 451 181 495 C215 526 260 548 306 557 C346 564 390 560 429 548 C479 533 523 498 554 457 C579 424 595 383 600 342 C607 283 594 223 563 174 C535 131 491 96 444 76 C416 64 384 59 353 58 C262 55 173 108 129 190 L129 190 Z M337 212 C337 228 337 244 338 261 C366 245 391 223 415 202 C420 198 425 194 431 193 C467 182 486 234 452 251 C444 255 410 284 403 289 C435 307 456 336 461 373 C464 393 459 418 444 432 C428 447 406 456 385 460 C364 465 342 466 322 460 C302 470 280 456 276 434 C276 432 276 419 275 417 C273 410 274 403 276 396 C277 395 278 394 278 392 C281 344 279 296 277 248 C277 239 275 206 278 198 C290 165 337 177 337 212 L337 212 Z M337 402 C351 406 367 404 381 399 C387 398 400 395 402 389 C404 379 395 359 388 352 C375 339 356 334 339 329 C340 353 338 378 337 402 L337 402 Z " />
<glyph glyph-name="degree" unicode="&#xb0;" horiz-adv-x="280" d="M163 441 C222 461 253 551 248 613 C246 634 238 655 226 672 C210 695 184 713 157 717 C145 719 131 717 123 709 C122 707 121 705 119 705 C110 705 102 702 94 699 C42 680 25 600 34 545 C39 516 53 485 75 465 C89 453 106 442 124 439 C136 436 150 437 163 441 L163 441 Z M128 500 C111 509 99 529 95 549 C89 577 91 611 107 636 C111 642 120 644 127 647 C132 649 137 653 140 658 C142 660 146 658 149 658 C164 655 183 634 187 618 C194 589 185 556 172 530 C163 511 147 491 128 500 L128 500 Z " />
<glyph glyph-name="plusminus" unicode="&#xb1;" horiz-adv-x="393" d="M222 198 C222 199 222 200 222 201 C223 237 222 273 222 308 C235 309 308 312 321 311 C324 311 328 311 331 311 C364 314 367 362 335 370 C318 374 239 369 221 368 C222 395 223 421 224 447 C225 460 224 474 217 484 C198 512 155 491 164 459 C164 458 165 457 165 455 C164 425 162 395 161 365 C145 364 72 358 57 353 C41 347 33 330 38 315 C43 301 58 292 72 295 C101 302 132 303 162 305 C162 272 163 239 162 206 C162 204 162 192 162 190 C166 150 227 157 222 198 L222 198 Z M63 36 C77 39 157 44 172 45 C225 49 279 53 332 52 C369 50 374 105 337 111 C311 115 191 107 165 104 C149 103 68 99 52 95 C27 88 22 53 45 40 C50 37 57 35 63 36 L63 36 Z " />
<glyph glyph-name="twosuperior" unicode="&#xb2;" horiz-adv-x="268" d="M230 520 C223 526 216 529 208 531 C196 534 138 536 125 536 C151 570 175 607 193 645 C207 677 220 711 223 745 C225 764 223 784 214 800 C206 813 193 825 178 831 C164 836 149 837 134 835 C100 831 68 807 49 778 C32 752 16 712 41 693 C63 676 94 696 88 723 C87 729 97 742 101 747 C113 764 138 783 157 774 C166 771 165 755 163 745 C153 683 118 625 79 575 C73 566 42 530 39 520 C32 503 40 484 57 477 C70 471 86 475 100 476 C127 477 154 475 181 474 C183 474 192 474 194 472 C225 453 257 496 230 520 L230 520 Z " />
<glyph glyph-name="threesuperior" unicode="&#xb3;" horiz-adv-x="279" d="M248 597 C245 629 229 653 199 668 C219 689 233 718 234 746 C235 760 231 775 225 787 C211 815 171 841 140 833 C123 828 106 820 92 808 C87 803 66 784 63 778 C46 748 85 717 109 741 C122 754 135 768 152 774 C160 771 169 766 173 758 C180 742 165 717 151 705 C141 697 128 692 116 690 C107 688 97 687 89 682 C67 670 70 637 94 628 C100 626 108 626 115 626 C135 625 177 621 186 602 C193 586 181 557 168 545 C157 535 139 527 125 531 C111 534 99 544 89 554 C84 579 53 588 36 568 C26 556 25 541 34 527 C44 511 60 499 76 488 C92 477 113 469 133 470 C197 471 253 533 248 597 L248 597 Z " />
<glyph glyph-name="paragraph" unicode="&#xb6;" horiz-adv-x="452" d="M347 15 C350 33 350 130 350 148 C351 179 355 371 356 403 C357 418 364 514 365 530 C367 576 367 623 373 670 C380 670 389 672 397 674 C425 685 422 727 392 732 C385 733 378 729 371 730 C312 737 249 741 192 724 C141 709 95 672 71 624 C49 582 33 535 33 487 C33 463 37 438 47 416 C71 359 120 312 174 282 C174 225 174 168 175 112 C175 101 176 44 178 33 C186 -8 246 7 238 48 C235 63 235 79 235 95 C232 235 234 376 240 516 C241 534 243 636 245 654 C246 661 250 667 251 674 C271 676 292 676 313 675 C307 628 308 579 305 531 C299 431 294 331 292 231 C292 203 291 52 287 24 C280 -20 341 -29 347 15 L347 15 Z M109 425 C99 442 93 463 93 483 C93 519 104 555 119 587 C133 616 157 642 185 657 C183 618 175 392 175 353 C149 372 125 397 109 425 L109 425 Z " />
<glyph glyph-name="periodcentered" unicode="&#xb7;" horiz-adv-x="97" d="M75 350 C66 362 47 366 33 359 C4 344 17 303 50 302 C75 300 90 329 75 350 L75 350 Z " />
<glyph glyph-name="onesuperior" unicode="&#xb9;" horiz-adv-x="198" d="M151 505 C150 511 151 540 151 546 C152 590 154 635 159 679 C164 713 170 747 173 782 C174 792 174 803 169 812 C161 827 141 834 126 826 C116 821 109 811 102 803 C80 778 56 756 33 733 C5 705 41 662 71 686 C76 690 100 715 105 719 C99 677 94 634 92 592 C92 581 90 521 91 510 C91 499 92 485 100 477 C121 453 157 474 151 505 L151 505 Z " />
<glyph glyph-name="guillemotright" unicode="&#xbb;" horiz-adv-x="435" d="M261 85 C292 120 325 152 359 184 C375 198 391 213 401 232 C411 250 410 271 398 288 C383 309 290 397 272 415 C268 419 250 436 245 439 C215 454 185 414 210 391 C230 373 329 278 346 257 C336 244 274 186 262 174 C251 163 212 127 209 112 C202 82 240 62 261 85 L261 85 Z M84 72 C105 86 189 171 207 189 C222 203 238 220 241 241 C244 256 238 273 229 285 C214 306 119 388 100 405 C90 415 79 430 65 431 C39 434 22 407 36 385 C51 363 164 270 181 249 C177 243 153 220 148 215 C118 185 88 156 57 128 C50 122 42 116 39 107 C31 81 60 58 84 72 L84 72 Z " />
<glyph glyph-name="onequarter" unicode="&#xbc;" horiz-adv-x="537" d="M98 -14 C102 -9 105 -2 108 5 C122 35 138 65 154 94 C201 179 247 265 296 350 C361 461 429 571 492 683 C508 713 467 741 443 717 C437 711 419 675 414 667 C340 535 258 408 185 275 C171 251 90 102 77 77 C73 70 58 35 53 29 C25 -1 70 -44 98 -14 L98 -14 Z M182 419 C184 435 182 520 182 536 C183 566 184 596 186 626 C187 635 193 681 192 691 C189 708 172 721 156 718 C142 716 108 685 97 676 C81 662 63 649 45 637 C19 618 34 577 66 581 C80 583 115 613 126 621 C121 558 125 495 123 431 C122 430 122 423 122 421 C124 385 177 383 182 419 L182 419 Z M466 7 C480 11 489 25 487 39 C486 55 485 139 485 154 C485 158 486 162 486 165 C483 196 442 203 429 176 C423 164 426 150 426 137 C400 135 375 135 350 132 C375 178 400 224 418 272 C420 279 435 315 437 321 C448 356 399 376 381 344 C377 336 360 287 356 278 C337 231 311 187 288 142 C282 131 275 119 274 106 C273 92 281 78 294 72 C305 66 318 68 331 69 C362 73 394 76 426 77 C426 63 427 50 427 37 C428 17 446 2 466 7 L466 7 Z " />
<glyph glyph-name="onehalf" unicode="&#xbd;" horiz-adv-x="588" d="M171 423 C173 436 173 510 174 523 C176 563 177 602 181 641 C182 652 190 696 188 706 C182 734 146 736 129 713 C113 693 97 672 78 656 C71 649 64 643 55 639 C50 636 45 635 41 632 C20 618 25 585 50 579 C61 576 73 581 83 586 C96 593 108 602 119 612 C115 554 114 497 112 440 C112 434 110 428 112 422 C118 389 166 390 171 423 L171 423 Z M129 5 C142 29 153 53 165 78 C182 114 289 323 307 358 C325 390 429 583 447 615 C459 635 472 655 483 676 C501 709 449 738 431 705 C420 685 408 667 397 648 C287 452 184 253 86 51 C84 48 76 32 75 29 C62 -6 112 -28 129 5 L129 5 Z M528 44 C488 50 448 53 408 54 C437 83 465 114 488 148 C511 180 530 217 537 256 C541 274 543 295 535 312 C522 341 476 360 444 355 C420 350 396 335 378 318 C354 293 326 244 342 213 C346 206 353 199 361 196 C387 185 412 213 398 238 C408 262 426 287 450 295 C460 298 472 294 480 288 C481 287 481 285 481 284 C481 281 479 267 478 264 C474 247 468 229 459 213 C428 159 384 113 338 71 C328 62 317 54 312 42 C305 22 320 3 340 -2 C355 -5 433 -6 448 -7 C472 -8 496 -12 520 -15 C560 -21 569 38 528 44 L528 44 Z " />
<glyph glyph-name="threequarters" unicode="&#xbe;" horiz-adv-x="593" d="M153 382 C182 389 209 410 225 435 C238 454 249 476 251 500 C253 523 243 545 224 560 C242 581 257 607 258 635 C259 661 248 685 227 701 C206 718 176 728 149 724 C129 722 110 709 93 697 C82 688 69 678 63 664 C51 631 95 609 116 637 C123 646 147 664 159 665 C174 667 197 655 198 639 C199 620 178 595 160 587 C152 584 143 584 134 581 C102 571 108 524 141 523 C154 522 184 521 190 510 C193 505 188 493 186 488 C181 476 174 463 163 454 C153 445 139 439 125 439 C110 440 93 443 83 455 C58 485 16 450 36 417 C43 405 56 398 68 393 C94 381 125 376 153 382 L153 382 Z M144 -15 C153 -7 181 41 187 51 C230 130 271 209 317 286 C330 308 412 448 426 470 C444 501 537 651 549 684 C561 715 521 740 499 715 C493 708 490 699 486 692 C449 621 405 554 365 485 C348 457 247 284 230 256 C218 233 140 90 127 67 C118 51 108 36 97 22 C76 -8 119 -42 144 -15 L144 -15 Z M534 27 C530 57 528 88 531 118 C531 122 529 127 529 131 C529 139 526 181 527 190 C533 226 481 238 469 204 C464 187 468 170 468 153 C445 154 421 155 398 153 C419 183 440 213 457 244 C462 253 491 307 496 316 C500 323 504 331 504 339 C507 374 459 383 446 351 C442 341 412 286 406 276 C381 230 349 188 318 146 C304 127 311 99 334 92 C346 89 396 94 408 94 C429 95 449 94 470 93 C471 78 471 21 478 7 C494 -24 538 -8 534 27 L534 27 Z " />
<glyph glyph-name="multiply" unicode="&#xd7;" horiz-adv-x="369" d="M85 158 C88 161 107 184 111 188 C118 196 166 246 174 254 C191 237 208 220 225 202 C232 194 261 159 269 154 C301 135 332 177 305 202 C299 208 266 246 260 252 C245 268 230 283 216 298 C252 334 288 371 323 408 C326 412 330 414 333 417 C354 439 332 475 302 466 C290 463 281 451 271 441 C239 407 207 374 174 340 C168 347 133 383 127 389 C113 405 99 422 85 437 C59 465 15 426 40 397 C56 380 70 363 85 346 C91 339 126 303 132 297 C118 283 48 211 37 194 C17 163 60 131 85 158 L85 158 Z " />
<glyph glyph-name="divide" unicode="&#xf7;" horiz-adv-x="382" d="M220 435 C206 460 170 457 162 429 C159 418 164 406 173 398 C200 375 238 405 220 435 L220 435 Z M337 262 C377 267 372 325 331 322 C237 316 142 322 47 322 C13 322 7 273 39 263 C43 262 47 262 50 262 C89 262 299 258 337 262 L337 262 Z M209 192 C205 216 179 228 160 214 C136 196 148 159 178 158 C196 157 211 174 209 192 L209 192 Z " />
<glyph glyph-name="florin" unicode="&#x192;" horiz-adv-x="484" d="M122 -157 C143 -151 161 -137 175 -120 C192 -98 204 -70 212 -43 C226 2 229 50 234 97 C243 193 252 290 263 387 C271 388 302 394 309 393 C337 387 356 419 339 441 C333 448 323 453 314 454 C307 454 277 449 270 448 C276 493 279 538 293 580 C300 600 307 621 322 637 C346 663 389 656 407 625 C408 622 412 612 412 609 C411 602 407 596 406 590 C402 565 430 547 452 560 C465 569 474 598 472 615 C462 690 382 735 313 703 C286 691 264 666 252 639 C224 579 217 510 209 444 C197 444 184 442 171 445 C138 452 121 407 151 389 C165 380 185 384 202 384 C190 268 180 151 167 34 C164 4 157 -27 144 -55 C137 -71 127 -88 112 -97 C94 -108 80 -85 73 -65 C64 -40 64 -12 70 14 C72 21 70 30 66 36 C51 59 18 53 11 27 C-1 -18 5 -71 28 -111 C37 -125 47 -138 60 -147 C78 -159 102 -163 122 -157 L122 -157 Z " />
<glyph glyph-name="endash" unicode="&#x2013;" horiz-adv-x="481" d="M75 266 C85 267 149 271 160 271 C170 271 231 272 241 273 C305 275 369 279 434 278 C470 277 475 332 438 338 C411 342 274 334 247 333 C195 331 143 331 91 327 C79 327 67 324 55 326 C25 332 5 296 28 275 C39 264 59 265 75 266 L75 266 Z " />
<glyph glyph-name="emdash" unicode="&#x2014;" horiz-adv-x="1015" d="M277 274 C321 275 595 278 640 278 C745 280 850 278 955 281 C957 281 968 281 970 281 C1011 286 1004 343 962 341 C921 339 680 339 640 338 C597 338 331 335 288 334 C265 334 124 330 101 330 C84 331 67 333 50 334 C14 337 5 285 41 275 C76 266 240 273 277 274 L277 274 Z " />
<glyph glyph-name="quoteleft" unicode="&#x2018;" horiz-adv-x="138" d="M97 631 C95 633 85 645 84 647 C82 653 87 667 90 671 C91 673 96 674 98 675 C128 688 118 735 84 733 C72 732 48 718 42 707 C28 687 21 659 25 635 C28 620 38 608 48 597 C71 572 111 600 97 631 L97 631 Z " />
<glyph glyph-name="quoteright" unicode="&#x2019;" horiz-adv-x="143" d="M99 593 C113 610 122 656 114 677 C107 697 79 726 58 728 C24 731 12 686 42 671 C46 669 56 663 57 659 C59 652 55 635 52 629 C50 626 46 624 43 621 C26 603 38 572 64 571 C77 570 91 582 99 593 L99 593 Z " />
<glyph glyph-name="quotedblleft" unicode="&#x201c;" horiz-adv-x="241" d="M95 643 C93 645 86 651 85 653 C82 661 88 670 96 674 C97 675 102 677 103 678 C123 690 122 719 101 730 C91 735 77 733 67 728 C22 703 8 642 46 607 C50 603 54 599 58 597 C88 581 117 618 95 643 L95 643 Z M197 643 C194 646 188 648 189 652 C191 659 196 666 202 670 C227 684 220 720 193 725 C178 728 163 717 153 706 C135 687 123 655 132 630 C137 617 147 606 159 597 C191 573 227 616 197 643 L197 643 Z " />
<glyph glyph-name="quotedblright" unicode="&#x201d;" horiz-adv-x="250" d="M196 581 C227 595 229 648 221 682 C215 707 191 731 166 733 C133 737 119 692 149 677 C152 675 161 673 162 670 C163 666 165 649 165 645 C165 642 164 633 162 630 C137 607 165 567 196 581 L196 581 Z M69 566 C103 578 127 625 122 661 C119 682 109 705 92 718 C90 720 87 722 85 723 C60 742 27 716 39 688 C42 681 48 675 54 672 C62 667 64 653 62 644 C60 633 53 625 43 621 C12 607 23 561 57 563 C61 564 65 565 69 566 L69 566 Z " />
<glyph glyph-name="dagger" unicode="&#x2020;" horiz-adv-x="309" d="M165 23 C167 27 167 32 167 37 C167 168 165 299 168 430 C195 433 222 436 249 437 C251 437 262 437 263 437 C294 441 300 483 271 495 C254 502 188 492 170 491 C170 515 175 662 176 686 C176 690 178 694 178 699 C180 729 140 742 123 716 C118 708 117 698 116 688 C114 620 111 553 109 486 C96 485 82 485 70 488 C30 498 16 441 55 430 C72 425 90 425 108 426 C105 295 105 164 106 33 C107 -1 154 -9 165 23 L165 23 Z " />
<glyph glyph-name="daggerdbl" unicode="&#x2021;" horiz-adv-x="359" d="M195 6 C200 15 202 53 203 63 C206 115 206 168 205 220 C237 222 268 224 300 226 C341 229 337 289 295 286 C265 284 235 282 205 280 C204 345 204 409 204 474 C224 474 245 474 265 475 C269 475 272 473 276 473 C318 472 316 534 274 535 C265 535 214 534 205 534 C205 553 204 668 205 688 C207 719 167 732 150 706 C142 693 145 676 145 661 C146 618 145 575 145 533 C134 532 74 530 64 531 C27 533 21 478 58 471 C70 469 132 472 144 473 C144 407 144 342 145 276 C126 274 69 270 56 257 C33 235 55 199 86 207 C105 212 125 214 145 216 C146 153 145 89 140 26 C137 -7 179 -22 195 6 L195 6 Z " />
<glyph glyph-name="bullet" unicode="&#x2022;" horiz-adv-x="140" d="M98 248 C131 267 124 323 87 335 C75 339 60 338 48 333 C40 329 33 322 28 314 C2 268 52 221 98 248 L98 248 Z " />
<glyph glyph-name="ellipsis" unicode="&#x2026;" horiz-adv-x="294" d="M76 57 C63 85 23 82 17 52 C15 41 22 27 31 20 C56 2 88 29 76 57 L76 57 Z M276 51 C263 90 204 74 216 35 C228 -4 288 12 276 51 L276 51 Z M186 32 C187 40 185 48 181 55 C165 85 120 70 125 37 C130 2 178 -2 186 32 L186 32 Z " />
<glyph glyph-name="perthousand" unicode="&#x2030;" horiz-adv-x="818" d="M116 -8 C121 -5 124 -1 127 4 C149 37 166 74 184 110 C284 301 387 490 493 678 C495 682 499 687 500 692 C507 719 477 740 454 725 C451 722 448 720 446 716 C336 525 232 331 130 136 C123 121 85 48 76 35 C55 8 88 -27 116 -8 L116 -8 Z M166 440 C225 459 256 550 251 612 C249 633 241 654 229 671 C213 693 187 711 160 716 C148 717 134 716 126 707 C125 706 124 703 122 703 C113 704 105 700 97 698 C45 678 28 599 37 544 C42 514 56 484 78 464 C92 451 109 441 127 437 C139 435 153 436 166 440 L166 440 Z M131 499 C114 508 102 528 98 547 C92 576 94 610 110 635 C114 641 123 643 130 646 C135 648 140 651 143 656 C145 658 149 657 152 656 C167 654 186 632 190 617 C197 588 188 555 175 528 C166 509 150 489 131 499 L131 499 Z M437 7 C496 26 527 117 522 179 C520 200 512 221 500 238 C484 260 458 278 431 283 C420 284 405 283 397 274 C396 273 395 270 393 270 C384 271 376 268 368 265 C316 245 300 166 308 111 C313 81 327 51 349 31 C363 18 380 8 398 4 C411 2 425 3 437 7 L437 7 Z M706 4 C765 23 796 114 791 176 C790 196 781 217 769 235 C753 257 727 275 700 279 C689 281 674 280 666 271 C665 270 664 267 662 267 C654 268 645 264 638 261 C585 242 569 163 578 108 C582 78 597 48 619 27 C632 15 649 5 667 1 C680 -1 694 0 706 4 L706 4 Z M403 66 C385 75 373 95 369 114 C363 143 365 177 381 202 C385 208 394 210 401 213 C406 215 411 219 415 223 C416 225 421 224 423 223 C438 221 457 199 461 184 C468 155 460 122 446 95 C437 77 421 56 403 66 L403 66 Z M672 63 C654 71 642 92 638 111 C632 140 634 174 650 198 C654 205 663 207 670 209 C675 212 680 215 684 220 C685 222 690 221 692 220 C708 217 726 196 730 181 C737 152 729 119 715 92 C706 73 691 53 672 63 L672 63 Z " />
<glyph glyph-name="guilsinglleft" unicode="&#x2039;" horiz-adv-x="260" d="M216 93 C217 101 214 110 209 117 C192 138 101 224 89 249 C97 265 150 314 162 326 C169 333 213 377 221 384 C243 406 226 443 195 437 C185 435 177 426 170 418 C130 377 86 338 48 295 C36 282 28 262 29 244 C30 231 37 219 44 207 C52 195 103 141 112 130 C127 114 143 99 158 84 C172 55 213 62 216 93 L216 93 Z " />
<glyph glyph-name="guilsinglright" unicode="&#x203a;" horiz-adv-x="260" d="M92 83 C126 119 158 157 193 192 C208 207 227 223 231 244 C234 261 226 279 217 293 C210 303 165 349 156 358 C150 363 118 398 112 403 C103 412 92 419 83 428 C75 436 61 440 50 436 C29 429 23 401 40 385 C43 383 62 368 65 365 C76 356 85 345 95 334 C106 323 162 267 170 254 C164 247 123 206 116 199 C94 175 71 151 50 126 C47 123 44 120 43 116 C29 85 69 59 92 83 L92 83 Z " />
<glyph glyph-name="fraction" unicode="&#x2044;" horiz-adv-x="460" d="M40 -38 C44 -33 55 -10 57 -5 C139 148 218 302 305 451 C342 516 380 581 421 643 C425 648 443 679 447 683 C472 715 428 753 401 722 C396 716 372 678 368 671 C248 488 149 293 46 101 C38 86 -5 8 -11 -8 C-23 -40 19 -63 40 -38 L40 -38 Z " />
<glyph glyph-name="Euro" unicode="&#x20ac;" horiz-adv-x="508" d="M322 6 C360 17 394 42 418 73 C440 100 453 134 462 168 C466 184 475 230 468 244 C453 271 412 262 411 232 C409 192 399 150 377 117 C364 99 347 84 328 73 C314 65 297 60 281 63 C262 67 245 79 231 93 C215 109 204 129 196 149 C183 182 177 216 172 250 C197 252 223 253 248 252 C285 250 292 303 256 311 C242 314 181 311 167 310 C166 339 166 369 168 398 C185 399 274 404 290 407 C314 411 323 441 306 458 C301 463 292 467 284 466 C248 464 212 461 175 458 C181 494 191 530 204 564 C214 590 228 615 247 636 C259 648 274 658 290 663 C318 670 358 664 370 638 C374 631 379 606 378 598 C377 585 373 572 378 560 C389 528 436 537 436 570 C436 581 439 592 438 603 C437 630 430 659 414 681 C379 729 298 738 246 709 C220 695 197 674 180 649 C143 591 124 522 114 454 C100 453 85 451 70 451 C34 450 30 398 66 391 C80 389 94 392 108 394 C106 365 106 336 107 306 C90 306 74 305 57 302 C16 296 24 236 65 243 C81 245 97 246 112 247 C117 204 125 162 142 122 C152 98 166 75 183 56 C205 32 233 13 264 5 C283 0 304 1 322 6 L322 6 Z " />
<glyph glyph-name="trademark" unicode="&#x2122;" horiz-adv-x="573" d="M150 465 C153 473 155 511 156 519 C161 570 164 621 167 672 C176 672 185 671 195 669 C231 662 245 713 211 727 C188 736 94 733 69 732 C59 731 48 730 40 725 C8 707 29 659 64 670 C70 672 100 672 107 672 C103 608 97 544 92 480 C90 445 136 433 150 465 L150 465 Z M533 457 C542 478 533 571 533 593 C533 620 539 688 518 705 C506 715 490 716 478 708 C462 698 417 636 406 621 C396 636 352 702 339 713 C334 718 326 720 320 721 C316 721 312 719 309 719 C292 719 279 703 278 687 C276 661 276 636 273 610 C272 593 262 494 262 476 C262 470 263 464 266 459 C281 429 327 443 322 476 C320 497 333 599 334 620 C340 612 367 568 374 561 C379 556 385 551 391 549 C399 546 408 546 416 548 C427 552 436 561 443 570 C453 584 463 598 473 611 C473 569 477 527 476 485 C466 467 474 445 494 438 C510 432 527 441 533 457 L533 457 Z " />
<glyph glyph-name="minus" unicode="&#x2212;" horiz-adv-x="364" d="M199 267 C215 268 297 271 313 268 C340 264 358 296 340 317 C333 325 322 329 312 329 C260 327 209 328 157 325 C126 323 94 320 63 323 C56 324 49 325 41 324 C11 318 8 276 37 266 C62 257 172 266 199 267 L199 267 Z " />
</font>
</svg>
